<?xml version="1.0" encoding="utf-8"?>
<!-- Generator: Adobe Illustrator 24.1.3, SVG Export Plug-In . SVG Version: 6.00 Build 0)  -->
<svg version="1.1" id="Capa_1" xmlns="http://www.w3.org/2000/svg" xmlns:xlink="http://www.w3.org/1999/xlink" x="0px" y="0px"
	 viewBox="0 0 60 60" style="enable-background:new 0 0 60 60;" xml:space="preserve">
<style type="text/css">
	.st0{fill:#FAFAFA;}
	.st1{fill:none;}
	.st2{fill:#FFFFFF;}
	.st3{fill:#02889D;}
	.st4{fill:#9EBFCB;}
	.st5{fill:#5F9FB1;}
	.st6{clip-path:url(#SVGID_2_);fill:#02889D;}
	.st7{clip-path:url(#SVGID_4_);fill:#02889D;}
	.st8{clip-path:url(#SVGID_6_);fill:#02889D;}
	.st9{clip-path:url(#SVGID_8_);fill:#02889D;}
	.st10{clip-path:url(#SVGID_10_);fill:#02889D;}
	.st11{clip-path:url(#SVGID_12_);fill:#02889D;}
	.st12{clip-path:url(#SVGID_14_);fill:#02889D;}
	.st13{clip-path:url(#SVGID_16_);fill:#02889D;}
	.st14{clip-path:url(#SVGID_18_);fill:#02889D;}
	.st15{clip-path:url(#SVGID_20_);fill:#02889D;}
	.st16{clip-path:url(#SVGID_22_);fill:#02889D;}
	.st17{clip-path:url(#SVGID_24_);fill:#02889D;}
	.st18{clip-path:url(#SVGID_26_);fill:#02889D;}
	.st19{clip-path:url(#SVGID_28_);fill:#02889D;}
	.st20{clip-path:url(#SVGID_30_);fill:#02889D;}
	.st21{clip-path:url(#SVGID_32_);fill:#02889D;}
	.st22{clip-path:url(#SVGID_34_);fill:#02889D;}
	.st23{clip-path:url(#SVGID_36_);fill:#02889D;}
	.st24{clip-path:url(#SVGID_38_);fill:#02889D;}
	.st25{clip-path:url(#SVGID_40_);fill:#02889D;}
	.st26{clip-path:url(#SVGID_42_);fill:#02889D;}
	.st27{clip-path:url(#SVGID_44_);fill:#02889D;}
	.st28{clip-path:url(#SVGID_46_);fill:#02889D;}
</style>
<rect x="-3955.9" y="778.9" class="st0" width="11606.4" height="3362.6"/>
<rect x="-3882.5" y="1120.5" class="st1" width="2048" height="2732"/>
<g>
	<rect x="-230" y="-251" class="st2" width="180" height="180"/>
	<g>
		<path class="st3" d="M-90.7-218.6l-46.4-19.2c-2.1-0.9-4.4-0.9-6.5,0l-46.4,19.2c-3.7,1.6-6.7,4.5-8.2,8.2l-18.1,43.8
			c-1.6,3.7-1.6,7.9,0,11.6l19.2,46.4c0.9,2.1,2.5,3.7,4.6,4.6l46.4,19.2c3.7,1.6,7.9,1.6,11.6,0l46.4-19.2c2.1-0.9,3.7-2.5,4.6-4.6
			l20.3-49c0.9-2.1,0.9-4.4,0-6.5l-19.2-46.4C-84-214.1-86.9-217-90.7-218.6z"/>
		<polygon class="st4" points="-186.1,-205.3 -140,-226.1 -94.3,-205.3 -76.3,-162 -95.8,-113.1 -140.3,-95.3 -188.4,-117 
			-206.4,-161.2 		"/>
		<path class="st5" d="M-182.8-202c0.2-0.6,0.7-1,1.3-1.3l40.4-16.7c0.6-0.2,1.2-0.2,1.8,0l40.4,16.7c0.6,0.2,1,0.7,1.3,1.3
			l16.7,40.4c0.2,0.6,0.2,1.2,0,1.8l-16.7,40.4c-0.2,0.6-0.7,1-1.3,1.3l-40.4,16.7c-0.6,0.2-1.2,0.2-1.8,0l-40.4-16.7
			c-0.6-0.2-1-0.7-1.3-1.3l-16.7-40.4c-0.2-0.6-0.2-1.2,0-1.8L-182.8-202 M-198.1-210.3l-18.1,43.8c-1.6,3.7-1.6,7.9,0,11.6
			l18.1,43.8c1.6,3.7,4.5,6.7,8.2,8.2l43.8,18.1c3.7,1.6,7.9,1.6,11.6,0l43.8-18.1c3.7-1.6,6.7-4.5,8.2-8.2l18.1-43.8
			c1.6-3.7,1.6-7.9,0-11.6l-18.1-43.8c-1.6-3.7-4.5-6.7-8.2-8.2l-43.8-18.1c-3.7-1.6-7.9-1.6-11.6,0l-43.8,18.1
			C-193.6-217-196.6-214.1-198.1-210.3L-198.1-210.3z"/>
		<path class="st3" d="M-141.1-102.6l-39.6-16.4l-24.9-10.3l7.6,18.2c1.6,3.7,4.5,6.7,8.2,8.2l43.8,18.1c3.7,1.6,7.9,1.6,11.6,0
			l18.2-7.6L-141.1-102.6z"/>
		<path class="st3" d="M-198.1-210.3l-18.1,43.8c-1.6,3.7-1.6,7.9,0,11.6l7.6,18.2l10.3-24.9l16.4-39.6l10.3-24.9l-18.2,7.6
			C-193.6-217-196.6-214.1-198.1-210.3z"/>
		<path class="st3" d="M-164.3-229.2l24.9,10.3l39.6,16.4l24.9,10.3l-7.6-18.2c-1.6-3.7-4.5-6.7-8.2-8.2l-43.8-18.1
			c-3.7-1.6-7.9-1.6-11.6,0L-164.3-229.2z"/>
		<path class="st3" d="M-82.2-159.9l-16.4,39.6l-10.3,24.9l18.2-7.6c3.7-1.6,6.7-4.5,8.2-8.2l18.1-43.8c1.6-3.7,1.6-7.9,0-11.6
			l-7.6-18.2L-82.2-159.9z"/>
		<circle class="st2" cx="-140.2" cy="-161.2" r="43.2"/>
		<g>
			<defs>
				<circle id="SVGID_1_" cx="-140.2" cy="-161.2" r="43.2"/>
			</defs>
			<clipPath id="SVGID_2_">
				<use xlink:href="#SVGID_1_"  style="overflow:visible;"/>
			</clipPath>
			<path class="st6" d="M-140.3-114.6c-3.4,0-6.8-0.4-10.1-1.1l-0.2,0l-26.3-73.4l0.1-0.1c3.4-4.3,7.4-7.9,12-10.8l0.3-0.2l24,65.1
				l23.8-65.3l0.3,0.2c4.6,2.8,8.7,6.4,12.1,10.7l0.1,0.1l-26,73.7l-0.2,0C-133.6-114.9-137-114.6-140.3-114.6z"/>
			<path class="st6" d="M-140.3-115.3c-3.3,0-6.5-0.3-9.7-1l-26-72.7c3.2-4,6.9-7.4,11.2-10.2l24.4,66.1l24.1-66.3
				c4.3,2.7,8.1,6.1,11.3,10l-25.7,73C-133.8-115.6-137.1-115.3-140.3-115.3z"/>
		</g>
	</g>
</g>
<g>
	<rect x="-230" y="0" class="st2" width="180" height="180"/>
	<g>
		<path class="st3" d="M-90.7,32.4L-137,13.2c-2.1-0.9-4.4-0.9-6.5,0l-46.4,19.2c-3.7,1.6-6.7,4.5-8.2,8.2l-18.1,43.8
			c-1.6,3.7-1.6,7.9,0,11.6l19.2,46.4c0.9,2.1,2.5,3.7,4.6,4.6l46.4,19.2c3.7,1.6,7.9,1.6,11.6,0l46.4-19.2c2.1-0.9,3.7-2.5,4.6-4.6
			l20.3-49c0.9-2.1,0.9-4.4,0-6.5l-19.2-46.4C-84,36.9-86.9,34-90.7,32.4z"/>
		<polygon class="st4" points="-186.1,45.7 -140,24.9 -94.3,45.7 -76.3,89 -95.8,137.9 -140.3,155.7 -188.4,134 -206.4,89.8 		"/>
		<path class="st5" d="M-182.8,49c0.2-0.6,0.7-1,1.3-1.3l40.4-16.7c0.6-0.2,1.2-0.2,1.8,0L-99,47.7c0.6,0.2,1,0.7,1.3,1.3L-81,89.4
			c0.2,0.6,0.2,1.2,0,1.8l-16.7,40.4c-0.2,0.6-0.7,1-1.3,1.3l-40.4,16.7c-0.6,0.2-1.2,0.2-1.8,0l-40.4-16.7c-0.6-0.2-1-0.7-1.3-1.3
			l-16.7-40.4c-0.2-0.6-0.2-1.2,0-1.8L-182.8,49 M-198.1,40.7l-18.1,43.8c-1.6,3.7-1.6,7.9,0,11.6l18.1,43.8
			c1.6,3.7,4.5,6.7,8.2,8.2l43.8,18.1c3.7,1.6,7.9,1.6,11.6,0l43.8-18.1c3.7-1.6,6.7-4.5,8.2-8.2l18.1-43.8c1.6-3.7,1.6-7.9,0-11.6
			l-18.1-43.8c-1.6-3.7-4.5-6.7-8.2-8.2l-43.8-18.1c-3.7-1.6-7.9-1.6-11.6,0l-43.8,18.1C-193.6,34-196.6,36.9-198.1,40.7
			L-198.1,40.7z"/>
		<path class="st3" d="M-141.1,148.4l-39.6-16.4l-24.9-10.3l7.6,18.2c1.6,3.7,4.5,6.7,8.2,8.2l43.8,18.1c3.7,1.6,7.9,1.6,11.6,0
			l18.2-7.6L-141.1,148.4z"/>
		<path class="st3" d="M-198.1,40.7l-18.1,43.8c-1.6,3.7-1.6,7.9,0,11.6l7.6,18.2l10.3-24.9l16.4-39.6l10.3-24.9l-18.2,7.6
			C-193.6,34-196.6,36.9-198.1,40.7z"/>
		<path class="st3" d="M-164.3,21.9l24.9,10.3l39.6,16.4l24.9,10.3l-7.6-18.2c-1.6-3.7-4.5-6.7-8.2-8.2l-43.8-18.1
			c-3.7-1.6-7.9-1.6-11.6,0L-164.3,21.9z"/>
		<path class="st3" d="M-82.2,91.1l-16.4,39.6l-10.3,24.9l18.2-7.6c3.7-1.6,6.7-4.5,8.2-8.2l18.1-43.8c1.6-3.7,1.6-7.9,0-11.6
			l-7.6-18.2L-82.2,91.1z"/>
		<circle class="st2" cx="-140.2" cy="89.8" r="43.2"/>
		<g>
			<defs>
				<circle id="SVGID_3_" cx="-140.2" cy="89.8" r="43.2"/>
			</defs>
			<clipPath id="SVGID_4_">
				<use xlink:href="#SVGID_3_"  style="overflow:visible;"/>
			</clipPath>
			<path class="st7" d="M-140.3,136.4c-3.4,0-6.8-0.4-10.1-1.1l-0.2,0l-26.3-73.4l0.1-0.1c3.4-4.3,7.4-7.9,12-10.8l0.3-0.2l24,65.1
				l23.8-65.3l0.3,0.2c4.6,2.8,8.7,6.4,12.1,10.7l0.1,0.1l-26,73.7l-0.2,0C-133.6,136.1-137,136.4-140.3,136.4z"/>
			<path class="st7" d="M-140.3,135.7c-3.3,0-6.5-0.3-9.7-1L-176,62c3.2-4,6.9-7.4,11.2-10.2l24.4,66.1l24.1-66.3
				c4.3,2.7,8.1,6.1,11.3,10l-25.7,73C-133.8,135.4-137.1,135.7-140.3,135.7z"/>
		</g>
	</g>
</g>
<g>
	<g>
		<path class="st3" d="M48.9,7.8L31.1,0.5c-0.8-0.3-1.7-0.3-2.5,0L10.9,7.8C9.5,8.4,8.4,9.5,7.8,11L0.9,27.7c-0.6,1.4-0.6,3,0,4.4
			l7.3,17.7c0.3,0.8,1,1.4,1.7,1.7L27.7,59c1.4,0.6,3,0.6,4.4,0l17.7-7.3c0.8-0.3,1.4-1,1.7-1.7l7.7-18.7c0.3-0.8,0.3-1.7,0-2.5
			L52,11C51.4,9.5,50.3,8.4,48.9,7.8z"/>
		<polygon class="st4" points="12.4,12.9 30,4.9 47.5,12.9 54.3,29.5 46.9,48.1 29.9,54.9 11.5,46.6 4.6,29.8 		"/>
		<path class="st5" d="M13.6,14.2c0.1-0.2,0.3-0.4,0.5-0.5l15.4-6.4c0.2-0.1,0.5-0.1,0.7,0l15.4,6.4c0.2,0.1,0.4,0.3,0.5,0.5
			l6.4,15.4c0.1,0.2,0.1,0.5,0,0.7l-6.4,15.4c-0.1,0.2-0.3,0.4-0.5,0.5l-15.4,6.4c-0.2,0.1-0.5,0.1-0.7,0l-15.4-6.4
			c-0.2-0.1-0.4-0.3-0.5-0.5L7.2,30.3c-0.1-0.2-0.1-0.5,0-0.7L13.6,14.2 M7.8,11L0.9,27.7c-0.6,1.4-0.6,3,0,4.4l6.9,16.7
			c0.6,1.4,1.7,2.5,3.1,3.1L27.7,59c1.4,0.6,3,0.6,4.4,0L48.9,52c1.4-0.6,2.5-1.7,3.1-3.1l6.9-16.7c0.6-1.4,0.6-3,0-4.4L52,11
			c-0.6-1.4-1.7-2.5-3.1-3.1L32.1,0.9c-1.4-0.6-3-0.6-4.4,0L10.9,7.8C9.5,8.4,8.4,9.5,7.8,11L7.8,11z"/>
		<path class="st3" d="M29.6,52.1l-15.1-6.3l-9.5-3.9l2.9,7c0.6,1.4,1.7,2.5,3.1,3.1L27.7,59c1.4,0.6,3,0.6,4.4,0l7-2.9L29.6,52.1z"
			/>
		<path class="st3" d="M7.8,11L0.9,27.7c-0.6,1.4-0.6,3,0,4.4l2.9,7l3.9-9.5L14,14.5l3.9-9.5l-7,2.9C9.5,8.4,8.4,9.5,7.8,11z"/>
		<path class="st3" d="M20.7,3.8l9.5,3.9L45.4,14l9.5,3.9L52,11c-0.6-1.4-1.7-2.5-3.1-3.1L32.1,0.9c-1.4-0.6-3-0.6-4.4,0L20.7,3.8z"
			/>
		<path class="st3" d="M52.1,30.3l-6.3,15.1l-3.9,9.5l7-2.9c1.4-0.6,2.5-1.7,3.1-3.1l6.9-16.7c0.6-1.4,0.6-3,0-4.4l-2.9-7L52.1,30.3
			z"/>
		<circle class="st2" cx="29.9" cy="29.8" r="16.5"/>
		<g>
			<defs>
				<circle id="SVGID_5_" cx="29.9" cy="29.8" r="16.5"/>
			</defs>
			<clipPath id="SVGID_6_">
				<use xlink:href="#SVGID_5_"  style="overflow:visible;"/>
			</clipPath>
			<path class="st8" d="M29.9,47.6c-1.3,0-2.6-0.1-3.8-0.4l-0.1,0l-10-28l0,0c1.3-1.6,2.8-3,4.6-4.1l0.1-0.1l9.2,24.9l9.1-25
				l0.1,0.1c1.8,1.1,3.3,2.4,4.6,4.1l0,0l-9.9,28.2l-0.1,0C32.5,47.4,31.2,47.6,29.9,47.6z"/>
			<path class="st8" d="M29.9,47.3c-1.2,0-2.5-0.1-3.7-0.4l-9.9-27.8c1.2-1.5,2.7-2.8,4.3-3.9l9.3,25.3l9.2-25.3
				c1.6,1,3.1,2.3,4.3,3.8l-9.8,27.9C32.4,47.2,31.1,47.3,29.9,47.3z"/>
		</g>
	</g>
</g>
<g>
	<rect x="110" y="-0.2" class="st2" width="76" height="76"/>
	<g>
		<path class="st3" d="M168.8,13.5l-19.6-8.1c-0.9-0.4-1.9-0.4-2.7,0l-19.6,8.1c-1.6,0.7-2.8,1.9-3.5,3.5l-7.7,18.5
			c-0.7,1.6-0.7,3.3,0,4.9l8.1,19.6c0.4,0.9,1.1,1.6,1.9,1.9l19.6,8.1c1.6,0.7,3.3,0.7,4.9,0l19.6-8.1c0.9-0.4,1.6-1.1,1.9-1.9
			l8.6-20.7c0.4-0.9,0.4-1.9,0-2.7L172.3,17C171.6,15.4,170.4,14.2,168.8,13.5z"/>
		<polygon class="st4" points="128.5,19.1 148,10.3 167.3,19.1 174.9,37.4 166.6,58 147.9,65.6 127.6,56.4 120,37.8 		"/>
		<path class="st5" d="M129.9,20.5c0.1-0.2,0.3-0.4,0.5-0.5l17.1-7.1c0.2-0.1,0.5-0.1,0.8,0l17.1,7.1c0.2,0.1,0.4,0.3,0.5,0.5
			l7.1,17.1c0.1,0.2,0.1,0.5,0,0.8l-7.1,17.1c-0.1,0.2-0.3,0.4-0.5,0.5L148.3,63c-0.2,0.1-0.5,0.1-0.8,0l-17.1-7.1
			c-0.2-0.1-0.4-0.3-0.5-0.5l-7.1-17.1c-0.1-0.2-0.1-0.5,0-0.8L129.9,20.5 M123.5,17l-7.7,18.5c-0.7,1.6-0.7,3.3,0,4.9l7.7,18.5
			c0.7,1.6,1.9,2.8,3.5,3.5l18.5,7.7c1.6,0.7,3.3,0.7,4.9,0l18.5-7.7c1.6-0.7,2.8-1.9,3.5-3.5l7.7-18.5c0.7-1.6,0.7-3.3,0-4.9
			L172.3,17c-0.7-1.6-1.9-2.8-3.5-3.5l-18.5-7.7c-1.6-0.7-3.3-0.7-4.9,0l-18.5,7.7C125.4,14.2,124.1,15.4,123.5,17L123.5,17z"/>
		<path class="st3" d="M147.5,62.5l-16.7-6.9l-10.5-4.4l3.2,7.7c0.7,1.6,1.9,2.8,3.5,3.5l18.5,7.7c1.6,0.7,3.3,0.7,4.9,0l7.7-3.2
			L147.5,62.5z"/>
		<path class="st3" d="M123.5,17l-7.7,18.5c-0.7,1.6-0.7,3.3,0,4.9l3.2,7.7l4.4-10.5l6.9-16.7l4.4-10.5l-7.7,3.2
			C125.4,14.2,124.1,15.4,123.5,17z"/>
		<path class="st3" d="M137.7,9.1l10.5,4.4l16.7,6.9l10.5,4.4l-3.2-7.7c-0.7-1.6-1.9-2.8-3.5-3.5l-18.5-7.7c-1.6-0.7-3.3-0.7-4.9,0
			L137.7,9.1z"/>
		<path class="st3" d="M172.4,38.3L165.5,55l-4.4,10.5l7.7-3.2c1.6-0.7,2.8-1.9,3.5-3.5l7.7-18.5c0.7-1.6,0.7-3.3,0-4.9l-3.2-7.7
			L172.4,38.3z"/>
		<circle class="st2" cx="147.9" cy="37.8" r="18.2"/>
		<g>
			<defs>
				<circle id="SVGID_7_" cx="147.9" cy="37.8" r="18.2"/>
			</defs>
			<clipPath id="SVGID_8_">
				<use xlink:href="#SVGID_7_"  style="overflow:visible;"/>
			</clipPath>
			<path class="st9" d="M147.9,57.4c-1.4,0-2.9-0.2-4.2-0.5l-0.1,0l-11.1-31l0-0.1c1.4-1.8,3.1-3.3,5.1-4.6l0.1-0.1l10.1,27.5
				l10-27.6l0.1,0.1c2,1.2,3.7,2.7,5.1,4.5l0,0.1l-11,31.1l-0.1,0C150.7,57.3,149.3,57.4,147.9,57.4z"/>
			<path class="st9" d="M147.9,57.1c-1.4,0-2.7-0.1-4.1-0.4l-11-30.7c1.3-1.7,2.9-3.1,4.7-4.3l10.3,27.9l10.2-28
				c1.8,1.1,3.4,2.6,4.8,4.2l-10.9,30.8C150.6,57,149.2,57.1,147.9,57.1z"/>
		</g>
	</g>
</g>
<g>
	<rect x="236" y="-0.2" class="st2" width="120" height="120"/>
	<g>
		<path class="st3" d="M328.9,21.5L298,8.6c-1.4-0.6-2.9-0.6-4.3,0l-30.9,12.8c-2.5,1-4.4,3-5.5,5.5l-12.1,29.2c-1,2.5-1,5.3,0,7.7
			L258,94.8c0.6,1.4,1.7,2.5,3,3l30.9,12.8c2.5,1,5.3,1,7.7,0l30.9-12.8c1.4-0.6,2.5-1.7,3-3l13.5-32.6c0.6-1.4,0.6-2.9,0-4.3
			l-12.8-30.9C333.3,24.4,331.4,22.5,328.9,21.5z"/>
		<polygon class="st4" points="265.3,30.3 296,16.4 326.5,30.3 338.4,59.2 325.4,91.7 295.8,103.6 263.8,89.2 251.7,59.7 		"/>
		<path class="st5" d="M267.4,32.5c0.2-0.4,0.5-0.7,0.8-0.8l26.9-11.2c0.4-0.2,0.8-0.2,1.2,0l26.9,11.2c0.4,0.2,0.7,0.5,0.8,0.8
			l11.2,26.9c0.2,0.4,0.2,0.8,0,1.2l-11.2,26.9c-0.2,0.4-0.5,0.7-0.8,0.8l-26.9,11.2c-0.4,0.2-0.8,0.2-1.2,0l-26.9-11.2
			c-0.4-0.2-0.7-0.5-0.8-0.8l-11.2-26.9c-0.2-0.4-0.2-0.8,0-1.2L267.4,32.5 M257.3,26.9l-12.1,29.2c-1,2.5-1,5.3,0,7.7l12.1,29.2
			c1,2.5,3,4.4,5.5,5.5l29.2,12.1c2.5,1,5.3,1,7.7,0l29.2-12.1c2.5-1,4.4-3,5.5-5.5l12.1-29.2c1-2.5,1-5.3,0-7.7l-12.1-29.2
			c-1-2.5-3-4.4-5.5-5.5L299.7,9.4c-2.5-1-5.3-1-7.7,0l-29.2,12.1C260.2,22.5,258.3,24.4,257.3,26.9L257.3,26.9z"/>
		<path class="st3" d="M295.2,98.7l-26.4-10.9l-16.6-6.9l5,12.2c1,2.5,3,4.4,5.5,5.5l29.2,12.1c2.5,1,5.3,1,7.7,0l12.2-5L295.2,98.7
			z"/>
		<path class="st3" d="M257.3,26.9l-12.1,29.2c-1,2.5-1,5.3,0,7.7l5,12.2l6.9-16.6L268,33l6.9-16.6l-12.2,5
			C260.2,22.5,258.3,24.4,257.3,26.9z"/>
		<path class="st3" d="M279.8,14.4l16.6,6.9l26.4,10.9l16.6,6.9l-5-12.2c-1-2.5-3-4.4-5.5-5.5L299.7,9.4c-2.5-1-5.3-1-7.7,0
			L279.8,14.4z"/>
		<path class="st3" d="M334.5,60.6L323.6,87l-6.9,16.6l12.2-5c2.5-1,4.4-3,5.5-5.5l12.1-29.2c1-2.5,1-5.3,0-7.7l-5-12.2L334.5,60.6z
			"/>
		<circle class="st2" cx="295.9" cy="59.7" r="28.8"/>
		<g>
			<defs>
				<circle id="SVGID_9_" cx="295.9" cy="59.7" r="28.8"/>
			</defs>
			<clipPath id="SVGID_10_">
				<use xlink:href="#SVGID_9_"  style="overflow:visible;"/>
			</clipPath>
			<path class="st10" d="M295.8,90.8c-2.3,0-4.5-0.2-6.7-0.7l-0.1,0l-17.5-48.9l0.1-0.1c2.2-2.9,4.9-5.3,8-7.2l0.2-0.1l16,43.4
				l15.8-43.6l0.2,0.1c3.1,1.9,5.8,4.3,8.1,7.1l0.1,0.1L302.6,90l-0.1,0C300.3,90.5,298,90.8,295.8,90.8z"/>
			<path class="st10" d="M295.8,90.3c-2.2,0-4.3-0.2-6.5-0.7L272,41.2c2.1-2.7,4.6-4.9,7.5-6.8l16.3,44.1l16.1-44.2
				c2.9,1.8,5.4,4,7.5,6.7l-17.2,48.7C300.1,90.1,297.9,90.3,295.8,90.3z"/>
		</g>
	</g>
</g>
<g>
	<rect x="406" y="-177.6" class="st2" width="152" height="152"/>
	<g>
		<path class="st3" d="M523.7-150.2l-39.2-16.2c-1.7-0.7-3.7-0.7-5.5,0l-39.2,16.2c-3.2,1.3-5.6,3.8-6.9,6.9l-15.3,37
			c-1.3,3.2-1.3,6.7,0,9.8l16.2,39.2c0.7,1.7,2.1,3.1,3.9,3.9l39.2,16.2c3.2,1.3,6.7,1.3,9.8,0l39.2-16.2c1.7-0.7,3.1-2.1,3.9-3.9
			l17.1-41.4c0.7-1.7,0.7-3.7,0-5.5l-16.2-39.2C529.3-146.5,526.8-148.9,523.7-150.2z"/>
		<polygon class="st4" points="443.1,-139.1 482,-156.6 520.6,-139.1 535.8,-102.5 519.3,-61.2 481.8,-46.2 441.2,-64.5 
			425.9,-101.8 		"/>
		<path class="st5" d="M445.8-136.3c0.2-0.5,0.6-0.9,1.1-1.1l34.1-14.1c0.5-0.2,1-0.2,1.5,0l34.1,14.1c0.5,0.2,0.9,0.6,1.1,1.1
			l14.1,34.1c0.2,0.5,0.2,1,0,1.5l-14.1,34.1c-0.2,0.5-0.6,0.9-1.1,1.1l-34.1,14.1c-0.5,0.2-1,0.2-1.5,0l-34.1-14.1
			c-0.5-0.2-0.9-0.6-1.1-1.1l-14.1-34.1c-0.2-0.5-0.2-1,0-1.5L445.8-136.3 M432.9-143.3l-15.3,37c-1.3,3.2-1.3,6.7,0,9.8l15.3,37
			c1.3,3.2,3.8,5.6,6.9,6.9l37,15.3c3.2,1.3,6.7,1.3,9.8,0l37-15.3c3.2-1.3,5.6-3.8,6.9-6.9l15.3-37c1.3-3.2,1.3-6.7,0-9.8l-15.3-37
			c-1.3-3.2-3.8-5.6-6.9-6.9l-37-15.3c-3.2-1.3-6.7-1.3-9.8,0l-37,15.3C436.7-148.9,434.2-146.5,432.9-143.3L432.9-143.3z"/>
		<path class="st3" d="M481-52.4l-33.4-13.8l-21.1-8.7l6.4,15.4c1.3,3.2,3.8,5.6,6.9,6.9l37,15.3c3.2,1.3,6.7,1.3,9.8,0l15.4-6.4
			L481-52.4z"/>
		<path class="st3" d="M432.9-143.3l-15.3,37c-1.3,3.2-1.3,6.7,0,9.8l6.4,15.4l8.7-21.1l13.8-33.4l8.7-21.1l-15.4,6.4
			C436.7-148.9,434.2-146.5,432.9-143.3z"/>
		<path class="st3" d="M461.5-159.2l21.1,8.7l33.4,13.8l21.1,8.7l-6.4-15.4c-1.3-3.2-3.8-5.6-6.9-6.9l-37-15.3
			c-3.2-1.3-6.7-1.3-9.8,0L461.5-159.2z"/>
		<path class="st3" d="M530.8-100.7L517-67.2l-8.7,21.1l15.4-6.4c3.2-1.3,5.6-3.8,6.9-6.9l15.3-37c1.3-3.2,1.3-6.7,0-9.8l-6.4-15.4
			L530.8-100.7z"/>
		<circle class="st2" cx="481.9" cy="-101.8" r="36.5"/>
		<g>
			<defs>
				<circle id="SVGID_11_" cx="481.9" cy="-101.8" r="36.5"/>
			</defs>
			<clipPath id="SVGID_12_">
				<use xlink:href="#SVGID_11_"  style="overflow:visible;"/>
			</clipPath>
			<path class="st11" d="M481.7-62.4c-2.9,0-5.7-0.3-8.5-0.9l-0.1,0l-22.2-62l0.1-0.1c2.8-3.6,6.2-6.7,10.1-9.1l0.2-0.2l20.3,55
				l20.1-55.2l0.2,0.2c3.9,2.4,7.3,5.4,10.2,9l0.1,0.1l-21.9,62.3l-0.1,0C487.4-62.7,484.6-62.4,481.7-62.4z"/>
			<path class="st11" d="M481.7-63c-2.7,0-5.5-0.3-8.2-0.9l-21.9-61.3c2.7-3.4,5.9-6.3,9.5-8.6L481.7-78l20.4-56
				c3.6,2.3,6.8,5.1,9.5,8.5l-21.7,61.6C487.2-63.3,484.5-63,481.7-63z"/>
		</g>
	</g>
</g>
<g>
	<rect x="406" y="-0.2" class="st2" width="152" height="152"/>
	<g>
		<path class="st3" d="M523.7,27.2L484.5,11c-1.7-0.7-3.7-0.7-5.5,0l-39.2,16.2c-3.2,1.3-5.6,3.8-6.9,6.9l-15.3,37
			c-1.3,3.2-1.3,6.7,0,9.8l16.2,39.2c0.7,1.7,2.1,3.1,3.9,3.9l39.2,16.2c3.2,1.3,6.7,1.3,9.8,0l39.2-16.2c1.7-0.7,3.1-2.1,3.9-3.9
			l17.1-41.4c0.7-1.7,0.7-3.7,0-5.5l-16.2-39.2C529.3,31,526.8,28.5,523.7,27.2z"/>
		<polygon class="st4" points="443.1,38.4 482,20.8 520.6,38.4 535.8,75 519.3,116.3 481.8,131.3 441.2,113 425.9,75.7 		"/>
		<path class="st5" d="M445.8,41.2c0.2-0.5,0.6-0.9,1.1-1.1L481,26c0.5-0.2,1-0.2,1.5,0l34.1,14.1c0.5,0.2,0.9,0.6,1.1,1.1
			l14.1,34.1c0.2,0.5,0.2,1,0,1.5l-14.1,34.1c-0.2,0.5-0.6,0.9-1.1,1.1l-34.1,14.1c-0.5,0.2-1,0.2-1.5,0L446.9,112
			c-0.5-0.2-0.9-0.6-1.1-1.1l-14.1-34.1c-0.2-0.5-0.2-1,0-1.5L445.8,41.2 M432.9,34.2l-15.3,37c-1.3,3.2-1.3,6.7,0,9.8l15.3,37
			c1.3,3.2,3.8,5.6,6.9,6.9l37,15.3c3.2,1.3,6.7,1.3,9.8,0l37-15.3c3.2-1.3,5.6-3.8,6.9-6.9l15.3-37c1.3-3.2,1.3-6.7,0-9.8l-15.3-37
			c-1.3-3.2-3.8-5.6-6.9-6.9l-37-15.3c-3.2-1.3-6.7-1.3-9.8,0l-37,15.3C436.7,28.5,434.2,31,432.9,34.2L432.9,34.2z"/>
		<path class="st3" d="M481,125.1l-33.4-13.8l-21.1-8.7l6.4,15.4c1.3,3.2,3.8,5.6,6.9,6.9l37,15.3c3.2,1.3,6.7,1.3,9.8,0l15.4-6.4
			L481,125.1z"/>
		<path class="st3" d="M432.9,34.2l-15.3,37c-1.3,3.2-1.3,6.7,0,9.8l6.4,15.4l8.7-21.1l13.8-33.4l8.7-21.1l-15.4,6.4
			C436.7,28.5,434.2,31,432.9,34.2z"/>
		<path class="st3" d="M461.5,18.3l21.1,8.7l33.4,13.8l21.1,8.7l-6.4-15.4c-1.3-3.2-3.8-5.6-6.9-6.9l-37-15.3
			c-3.2-1.3-6.7-1.3-9.8,0L461.5,18.3z"/>
		<path class="st3" d="M530.8,76.8L517,110.2l-8.7,21.1l15.4-6.4c3.2-1.3,5.6-3.8,6.9-6.9l15.3-37c1.3-3.2,1.3-6.7,0-9.8l-6.4-15.4
			L530.8,76.8z"/>
		<circle class="st2" cx="481.9" cy="75.7" r="36.5"/>
		<g>
			<defs>
				<circle id="SVGID_13_" cx="481.9" cy="75.7" r="36.5"/>
			</defs>
			<clipPath id="SVGID_14_">
				<use xlink:href="#SVGID_13_"  style="overflow:visible;"/>
			</clipPath>
			<path class="st12" d="M481.7,115c-2.9,0-5.7-0.3-8.5-0.9l-0.1,0l-22.2-62L451,52c2.8-3.6,6.2-6.7,10.1-9.1l0.2-0.2l20.3,55
				l20.1-55.2l0.2,0.2c3.9,2.4,7.3,5.4,10.2,9l0.1,0.1l-21.9,62.3l-0.1,0C487.4,114.7,484.6,115,481.7,115z"/>
			<path class="st12" d="M481.7,114.4c-2.7,0-5.5-0.3-8.2-0.9l-21.9-61.3c2.7-3.4,5.9-6.3,9.5-8.6l20.6,55.8l20.4-56
				c3.6,2.3,6.8,5.1,9.5,8.5l-21.7,61.6C487.2,114.1,484.5,114.4,481.7,114.4z"/>
		</g>
	</g>
</g>
<g>
	<rect x="844.5" y="-202.8" class="st2" width="167" height="167"/>
	<g>
		<path class="st3" d="M973.8-172.8l-43-17.8c-1.9-0.8-4.1-0.8-6,0l-43,17.8c-3.5,1.4-6.2,4.1-7.6,7.6l-16.8,40.6
			c-1.4,3.5-1.4,7.3,0,10.8l17.8,43c0.8,1.9,2.3,3.4,4.2,4.2l43,17.8c3.5,1.4,7.3,1.4,10.8,0l43-17.8c1.9-0.8,3.4-2.3,4.2-4.2
			l18.8-45.4c0.8-1.9,0.8-4.1,0-6l-17.8-43C980-168.6,977.3-171.3,973.8-172.8z"/>
		<polygon class="st4" points="885.3,-160.5 928,-179.8 970.4,-160.5 987.1,-120.2 969,-74.9 927.7,-58.4 883.1,-78.5 866.4,-119.5 
					"/>
		<path class="st5" d="M888.3-157.4c0.2-0.5,0.6-1,1.2-1.2l37.5-15.5c0.5-0.2,1.1-0.2,1.7,0l37.5,15.5c0.5,0.2,1,0.6,1.2,1.2
			l15.5,37.5c0.2,0.5,0.2,1.1,0,1.7l-15.5,37.5c-0.2,0.5-0.6,1-1.2,1.2l-37.5,15.5c-0.5,0.2-1.1,0.2-1.7,0l-37.5-15.5
			c-0.5-0.2-1-0.6-1.2-1.2l-15.5-37.5c-0.2-0.5-0.2-1.1,0-1.7L888.3-157.4 M874.1-165.1l-16.8,40.6c-1.4,3.5-1.4,7.3,0,10.8
			l16.8,40.6c1.4,3.5,4.1,6.2,7.6,7.6l40.6,16.8c3.5,1.4,7.3,1.4,10.8,0l40.6-16.8c3.5-1.4,6.2-4.1,7.6-7.6l16.8-40.6
			c1.4-3.5,1.4-7.3,0-10.8l-16.8-40.6c-1.4-3.5-4.1-6.2-7.6-7.6l-40.6-16.8c-3.5-1.4-7.3-1.4-10.8,0l-40.6,16.8
			C878.2-171.3,875.5-168.6,874.1-165.1L874.1-165.1z"/>
		<path class="st3" d="M926.9-65.2l-36.7-15.2L867.1-90l7,16.9c1.4,3.5,4.1,6.2,7.6,7.6l40.6,16.8c3.5,1.4,7.3,1.4,10.8,0l16.9-7
			L926.9-65.2z"/>
		<path class="st3" d="M874.1-165.1l-16.8,40.6c-1.4,3.5-1.4,7.3,0,10.8l7,16.9l9.6-23.1l15.2-36.7l9.6-23.1l-16.9,7
			C878.2-171.3,875.5-168.6,874.1-165.1z"/>
		<path class="st3" d="M905.4-182.6l23.1,9.6l36.7,15.2l23.1,9.6l-7-16.9c-1.4-3.5-4.1-6.2-7.6-7.6l-40.6-16.8
			c-3.5-1.4-7.3-1.4-10.8,0L905.4-182.6z"/>
		<path class="st3" d="M981.6-118.3l-15.2,36.7l-9.6,23.1l16.9-7c3.5-1.4,6.2-4.1,7.6-7.6l16.8-40.6c1.4-3.5,1.4-7.3,0-10.8l-7-16.9
			L981.6-118.3z"/>
		<circle class="st2" cx="927.8" cy="-119.5" r="40.1"/>
		<g>
			<defs>
				<circle id="SVGID_15_" cx="927.8" cy="-119.5" r="40.1"/>
			</defs>
			<clipPath id="SVGID_16_">
				<use xlink:href="#SVGID_15_"  style="overflow:visible;"/>
			</clipPath>
			<path class="st13" d="M927.7-76.3c-3.1,0-6.3-0.3-9.3-1l-0.1,0l-24.4-68.1l0.1-0.1c3.1-4,6.9-7.3,11.1-10l0.3-0.2l22.3,60.4
				l22.1-60.6l0.3,0.2c4.3,2.6,8.1,5.9,11.2,9.9l0.1,0.1l-24.1,68.4l-0.1,0C934-76.6,930.8-76.3,927.7-76.3z"/>
			<path class="st13" d="M927.7-76.9c-3,0-6-0.3-9-1l-24.1-67.4c2.9-3.7,6.4-6.9,10.4-9.4l22.6,61.3l22.4-61.5
				c4,2.5,7.5,5.6,10.5,9.3l-23.9,67.7C933.7-77.2,930.7-76.9,927.7-76.9z"/>
		</g>
	</g>
</g>
<g>
	<rect x="608" y="-0.2" class="st2" width="180" height="180"/>
	<g>
		<path class="st3" d="M747.3,32.3L701,13.1c-2.1-0.9-4.4-0.9-6.5,0l-46.4,19.2c-3.7,1.6-6.7,4.5-8.2,8.2l-18.1,43.8
			c-1.6,3.7-1.6,7.9,0,11.6l19.2,46.4c0.9,2.1,2.5,3.7,4.6,4.6l46.4,19.2c3.7,1.6,7.9,1.6,11.6,0l46.4-19.2c2.1-0.9,3.7-2.5,4.6-4.6
			l20.3-49c0.9-2.1,0.9-4.4,0-6.5l-19.2-46.4C754,36.7,751.1,33.8,747.3,32.3z"/>
		<polygon class="st4" points="651.9,45.5 698,24.7 743.7,45.5 761.7,88.9 742.2,137.7 697.7,155.5 649.6,133.8 631.6,89.7 		"/>
		<path class="st5" d="M655.2,48.8c0.2-0.6,0.7-1,1.3-1.3l40.4-16.7c0.6-0.2,1.2-0.2,1.8,0L739,47.5c0.6,0.2,1,0.7,1.3,1.3L757,89.2
			c0.2,0.6,0.2,1.2,0,1.8l-16.7,40.4c-0.2,0.6-0.7,1-1.3,1.3l-40.4,16.7c-0.6,0.2-1.2,0.2-1.8,0l-40.4-16.7c-0.6-0.2-1-0.7-1.3-1.3
			L638.4,91c-0.2-0.6-0.2-1.2,0-1.8L655.2,48.8 M639.9,40.5l-18.1,43.8c-1.6,3.7-1.6,7.9,0,11.6l18.1,43.8c1.6,3.7,4.5,6.7,8.2,8.2
			l43.8,18.1c3.7,1.6,7.9,1.6,11.6,0l43.8-18.1c3.7-1.6,6.7-4.5,8.2-8.2l18.1-43.8c1.6-3.7,1.6-7.9,0-11.6l-18.1-43.8
			c-1.6-3.7-4.5-6.7-8.2-8.2l-43.8-18.1c-3.7-1.6-7.9-1.6-11.6,0l-43.8,18.1C644.4,33.8,641.4,36.7,639.9,40.5L639.9,40.5z"/>
		<path class="st3" d="M696.9,148.2l-39.6-16.4l-24.9-10.3l7.6,18.2c1.6,3.7,4.5,6.7,8.2,8.2l43.8,18.1c3.7,1.6,7.9,1.6,11.6,0
			l18.2-7.6L696.9,148.2z"/>
		<path class="st3" d="M639.9,40.5l-18.1,43.8c-1.6,3.7-1.6,7.9,0,11.6l7.6,18.2l10.3-24.9L656,49.6l10.3-24.9l-18.2,7.6
			C644.4,33.8,641.4,36.7,639.9,40.5z"/>
		<path class="st3" d="M673.7,21.7L698.6,32l39.6,16.4l24.9,10.3l-7.6-18.2c-1.6-3.7-4.5-6.7-8.2-8.2l-43.8-18.1
			c-3.7-1.6-7.9-1.6-11.6,0L673.7,21.7z"/>
		<path class="st3" d="M755.8,91l-16.4,39.6l-10.3,24.9l18.2-7.6c3.7-1.6,6.7-4.5,8.2-8.2l18.1-43.8c1.6-3.7,1.6-7.9,0-11.6
			L766.1,66L755.8,91z"/>
		<circle class="st2" cx="697.8" cy="89.7" r="43.2"/>
		<g>
			<defs>
				<circle id="SVGID_17_" cx="697.8" cy="89.7" r="43.2"/>
			</defs>
			<clipPath id="SVGID_18_">
				<use xlink:href="#SVGID_17_"  style="overflow:visible;"/>
			</clipPath>
			<path class="st14" d="M697.7,136.3c-3.4,0-6.8-0.4-10.1-1.1l-0.2,0l-26.3-73.4l0.1-0.1c3.4-4.3,7.4-7.9,12-10.8l0.3-0.2l24,65.1
				l23.8-65.3l0.3,0.2c4.6,2.8,8.7,6.4,12.1,10.7l0.1,0.1l-26,73.7l-0.2,0C704.4,135.9,701,136.3,697.7,136.3z"/>
			<path class="st14" d="M697.7,135.6c-3.3,0-6.5-0.3-9.7-1l-26-72.7c3.2-4,6.9-7.4,11.2-10.2l24.4,66.1l24.1-66.3
				c4.3,2.7,8.1,6.1,11.3,10l-25.7,73C704.2,135.2,700.9,135.6,697.7,135.6z"/>
		</g>
	</g>
</g>
<g>
	<rect x="838" y="0" class="st1" width="512" height="512"/>
	<g>
		<path class="st3" d="M1234.3,92.3l-131.9-54.7c-5.9-2.4-12.5-2.4-18.4,0L952.1,92.3c-10.7,4.4-19,12.7-23.4,23.4l-51.6,124.6
			c-4.4,10.7-4.4,22.4,0,33.1l54.7,131.9c2.4,5.9,7.1,10.6,13,13l131.9,54.7c10.7,4.4,22.4,4.4,33.1,0l131.9-54.7
			c5.9-2.4,10.6-7.1,13-13l57.7-139.3c2.4-5.9,2.4-12.5,0-18.4l-54.7-131.9C1253.3,105,1245,96.7,1234.3,92.3z"/>
		<polygon class="st4" points="962.9,129.9 1094,70.8 1224.1,129.9 1275.1,253.2 1219.6,392.2 1093.2,442.8 956.4,381.2 
			905.1,255.5 		"/>
		<path class="st5" d="M972.2,139.3c0.7-1.6,2-2.9,3.6-3.6l114.9-47.6c1.6-0.7,3.5-0.7,5.1,0l114.9,47.6c1.6,0.7,2.9,2,3.6,3.6
			l47.6,114.9c0.7,1.6,0.7,3.5,0,5.1l-47.6,114.9c-0.7,1.6-2,2.9-3.6,3.6l-114.9,47.6c-1.6,0.7-3.5,0.7-5.1,0l-114.9-47.6
			c-1.6-0.7-2.9-2-3.6-3.6l-47.6-114.9c-0.7-1.6-0.7-3.5,0-5.1L972.2,139.3 M928.7,115.7l-51.6,124.6c-4.4,10.7-4.4,22.4,0,33.1
			l51.6,124.6c4.4,10.7,12.7,19,23.4,23.4l124.6,51.6c10.7,4.4,22.4,4.4,33.1,0l124.6-51.6c10.7-4.4,19-12.7,23.4-23.4l51.6-124.6
			c4.4-10.7,4.4-22.4,0-33.1l-51.6-124.6c-4.4-10.7-12.7-19-23.4-23.4l-124.6-51.6c-10.7-4.4-22.4-4.4-33.1,0L952.1,92.3
			C941.4,96.7,933.1,105,928.7,115.7L928.7,115.7z"/>
		<path class="st3" d="M1090.7,422l-112.6-46.6L907.2,346l21.5,51.9c4.4,10.7,12.7,19,23.4,23.4l124.6,51.6
			c10.7,4.4,22.4,4.4,33.1,0l51.9-21.5L1090.7,422z"/>
		<path class="st3" d="M928.7,115.7l-51.6,124.6c-4.4,10.7-4.4,22.4,0,33.1l21.5,51.9l29.4-70.9l46.6-112.6l29.4-70.9l-51.9,21.5
			C941.4,96.7,933.1,105,928.7,115.7z"/>
		<path class="st3" d="M1024.8,62.2l70.9,29.4l112.6,46.6l70.9,29.4l-21.5-51.9c-4.4-10.7-12.7-19-23.4-23.4l-124.6-51.6
			c-10.7-4.4-22.4-4.4-33.1,0L1024.8,62.2z"/>
		<path class="st3" d="M1258.5,259.3l-46.6,112.6l-29.4,70.9l51.9-21.5c10.7-4.4,19-12.7,23.4-23.4l51.6-124.6
			c4.4-10.7,4.4-22.4,0-33.1l-21.5-51.9L1258.5,259.3z"/>
		<circle class="st2" cx="1093.5" cy="255.5" r="122.8"/>
		<g>
			<defs>
				<circle id="SVGID_19_" cx="1093.5" cy="255.5" r="122.8"/>
			</defs>
			<clipPath id="SVGID_20_">
				<use xlink:href="#SVGID_19_"  style="overflow:visible;"/>
			</clipPath>
			<path class="st15" d="M1093,388.1c-9.6,0-19.3-1.1-28.6-3.1l-0.4-0.1l-74.7-208.8l0.3-0.4c9.5-12.2,21-22.5,34.2-30.7l0.8-0.5
				l68.3,185.2l67.6-185.8l0.8,0.5c13.2,8,24.7,18.2,34.4,30.3l0.3,0.3l-73.9,209.8l-0.4,0.1C1112.3,387.1,1102.6,388.1,1093,388.1z
				"/>
			<path class="st15" d="M1093,386.1c-9.3,0-18.5-1-27.5-2.9l-73.9-206.7c9-11.4,19.8-21.1,32-28.9l69.3,188.1l68.7-188.7
				c12.2,7.7,23.1,17.2,32.2,28.5l-73.2,207.6C1111.5,385.1,1102.3,386.1,1093,386.1z"/>
		</g>
	</g>
</g>
<g>
	<rect x="-3329.3" y="2015.7" class="st1" width="941.6" height="941.6"/>
	<g>
		<path class="st3" d="M-2600.4,2185.4l-242.6-100.5c-10.8-4.5-23-4.5-33.8,0l-242.6,100.5c-19.6,8.1-34.9,23.4-43,43l-94.9,229.1
			c-8.1,19.6-8.1,41.2,0,60.8l100.5,242.6c4.5,10.8,13.1,19.4,23.9,23.9l242.6,100.5c19.6,8.1,41.2,8.1,60.8,0l242.6-100.5
			c10.8-4.5,19.4-13.1,23.9-23.9l106.1-256.2c4.5-10.8,4.5-23,0-33.8l-100.5-242.6C-2565.5,2208.8-2580.8,2193.6-2600.4,2185.4z"/>
		<polygon class="st4" points="-3099.5,2254.7 -2858.5,2145.9 -2619.3,2254.7 -2525.4,2481.5 -2627.5,2737 -2859.9,2830 
			-3111.5,2716.7 -3205.9,2485.6 		"/>
		<path class="st5" d="M-3082.5,2272c1.2-3,3.6-5.4,6.6-6.6l211.3-87.5c3-1.2,6.4-1.2,9.3,0l211.3,87.5c3,1.2,5.4,3.6,6.6,6.6
			l87.5,211.3c1.2,3,1.2,6.4,0,9.3l-87.5,211.3c-1.2,3-3.6,5.4-6.6,6.6l-211.3,87.5c-3,1.2-6.4,1.2-9.3,0l-211.3-87.5
			c-3-1.2-5.4-3.6-6.6-6.6l-87.5-211.3c-1.2-3-1.2-6.4,0-9.3L-3082.5,2272 M-3162.4,2228.4l-94.9,229.1c-8.1,19.6-8.1,41.2,0,60.8
			l94.9,229.1c8.1,19.6,23.4,34.9,43,43l229.1,94.9c19.6,8.1,41.2,8.1,60.8,0l229.1-94.9c19.6-8.1,34.9-23.4,43-43l94.9-229.1
			c8.1-19.6,8.1-41.2,0-60.8l-94.9-229.1c-8.1-19.6-23.4-34.9-43-43l-229.1-94.9c-19.6-8.1-41.2-8.1-60.8,0l-229.1,94.9
			C-3139.1,2193.6-3154.3,2208.8-3162.4,2228.4L-3162.4,2228.4z"/>
		<path class="st3" d="M-2864.5,2791.8l-207.1-85.8l-130.4-54l39.5,95.5c8.1,19.6,23.4,34.9,43,43l229.1,94.9
			c19.6,8.1,41.2,8.1,60.8,0l95.5-39.5L-2864.5,2791.8z"/>
		<path class="st3" d="M-3162.4,2228.4l-94.9,229.1c-8.1,19.6-8.1,41.2,0,60.8l39.5,95.5l54-130.4l85.8-207.1l54-130.4l-95.5,39.5
			C-3139.1,2193.6-3154.3,2208.8-3162.4,2228.4z"/>
		<path class="st3" d="M-2985.8,2130.1l130.4,54l207.1,85.8l130.4,54l-39.5-95.5c-8.1-19.6-23.4-34.9-43-43l-229.1-94.9
			c-19.6-8.1-41.2-8.1-60.8,0L-2985.8,2130.1z"/>
		<path class="st3" d="M-2556,2492.5l-85.8,207.1l-54,130.4l95.5-39.5c19.6-8.1,34.9-23.4,43-43l94.9-229.1
			c8.1-19.6,8.1-41.2,0-60.8l-39.5-95.5L-2556,2492.5z"/>
		<circle class="st0" cx="-2859.4" cy="2485.6" r="225.8"/>
		<g>
			<defs>
				<circle id="SVGID_21_" cx="-2859.4" cy="2485.6" r="225.8"/>
			</defs>
			<clipPath id="SVGID_22_">
				<use xlink:href="#SVGID_21_"  style="overflow:visible;"/>
			</clipPath>
			<path class="st16" d="M-2860.3,2729.5c-17.7,0-35.4-1.9-52.6-5.8l-0.8-0.2l-137.3-383.9l0.5-0.6c17.5-22.4,38.7-41.4,62.9-56.4
				l1.5-1l125.6,340.6l124.3-341.7l1.5,0.9c24.2,14.8,45.5,33.5,63.2,55.7l0.5,0.6l-135.9,385.7l-0.8,0.2
				C-2824.9,2727.5-2842.6,2729.5-2860.3,2729.5z"/>
			<path class="st16" d="M-2860.3,2725.8c-17,0-34.1-1.8-50.6-5.4l-136-380c16.6-20.9,36.3-38.8,58.8-53.1l127.5,345.8l126.2-347
				c22.5,14.1,42.4,31.7,59.2,52.5l-134.6,381.8C-2826.3,2723.9-2843.3,2725.8-2860.3,2725.8z"/>
		</g>
	</g>
</g>
<g>
	<rect x="-1025.7" y="1686.7" class="st1" width="854.1" height="854.1"/>
	<g>
		<path class="st3" d="M-364.6,1840.6l-220.1-91.2c-9.8-4.1-20.8-4.1-30.6,0l-220.1,91.2c-17.8,7.4-31.6,21.2-39,39l-86.1,207.8
			c-7.4,17.8-7.4,37.4,0,55.2l91.2,220.1c4.1,9.8,11.9,17.6,21.7,21.7l220.1,91.2c17.8,7.4,37.4,7.4,55.2,0l220.1-91.2
			c9.8-4.1,17.6-11.9,21.7-21.7l96.2-232.4c4.1-9.8,4.1-20.8,0-30.6l-91.2-220.1C-332.9,1861.8-346.8,1848-364.6,1840.6z"/>
		<polygon class="st4" points="-817.3,1903.4 -598.7,1804.8 -381.7,1903.4 -296.6,2109.2 -389.1,2340.9 -600,2425.3 -828.2,2322.5 
			-913.8,2112.9 		"/>
		<path class="st5" d="M-801.9,1919.1c1.1-2.7,3.3-4.9,6-6l191.7-79.4c2.7-1.1,5.8-1.1,8.5,0l191.7,79.4c2.7,1.1,4.9,3.3,6,6
			l79.4,191.7c1.1,2.7,1.1,5.8,0,8.5l-79.4,191.7c-1.1,2.7-3.3,4.9-6,6l-191.7,79.4c-2.7,1.1-5.8,1.1-8.5,0l-191.7-79.4
			c-2.7-1.1-4.9-3.3-6-6l-79.4-191.7c-1.1-2.7-1.1-5.8,0-8.5L-801.9,1919.1 M-874.4,1879.6l-86.1,207.8c-7.4,17.8-7.4,37.4,0,55.2
			l86.1,207.8c7.4,17.8,21.2,31.6,39,39l207.8,86.1c17.8,7.4,37.4,7.4,55.2,0l207.8-86.1c17.8-7.4,31.6-21.2,39-39l86.1-207.8
			c7.4-17.8,7.4-37.4,0-55.2l-86.1-207.8c-7.4-17.8-21.2-31.6-39-39l-207.8-86.1c-17.8-7.4-37.4-7.4-55.2,0l-207.8,86.1
			C-853.2,1848-867,1861.8-874.4,1879.6L-874.4,1879.6z"/>
		<path class="st3" d="M-604.1,2390.7l-187.8-77.8l-118.3-49l35.9,86.6c7.4,17.8,21.2,31.6,39,39l207.8,86.1
			c17.8,7.4,37.4,7.4,55.2,0l86.6-35.9L-604.1,2390.7z"/>
		<path class="st3" d="M-874.4,1879.6l-86.1,207.8c-7.4,17.8-7.4,37.4,0,55.2l35.9,86.6l49-118.3l77.8-187.8l49-118.3l-86.6,35.9
			C-853.2,1848-867,1861.8-874.4,1879.6z"/>
		<path class="st3" d="M-714.2,1790.4l118.3,49l187.8,77.8l118.3,49l-35.9-86.6c-7.4-17.8-21.2-31.6-39-39l-207.8-86.1
			c-17.8-7.4-37.4-7.4-55.2,0L-714.2,1790.4z"/>
		<path class="st3" d="M-324.3,2119.2l-77.8,187.8l-49,118.3l86.6-35.9c17.8-7.4,31.6-21.2,39-39l86.1-207.8
			c7.4-17.8,7.4-37.4,0-55.2l-35.9-86.6L-324.3,2119.2z"/>
		<circle class="st0" cx="-599.5" cy="2112.9" r="204.8"/>
		<g>
			<defs>
				<circle id="SVGID_23_" cx="-599.5" cy="2112.9" r="204.8"/>
			</defs>
			<clipPath id="SVGID_24_">
				<use xlink:href="#SVGID_23_"  style="overflow:visible;"/>
			</clipPath>
			<path class="st17" d="M-600.3,2334.1c-16.1,0-32.1-1.8-47.7-5.2l-0.7-0.2l-124.6-348.2l0.5-0.6c15.9-20.3,35.1-37.5,57-51.2
				l1.4-0.9l113.9,309l112.8-310l1.4,0.9c22,13.4,41.2,30.4,57.4,50.5l0.5,0.6l-123.3,349.9l-0.7,0.2
				C-568.2,2332.4-584.3,2334.1-600.3,2334.1z"/>
			<path class="st17" d="M-600.3,2330.7c-15.4,0-30.9-1.7-45.9-4.9l-123.3-344.7c15-19,32.9-35.2,53.3-48.2l115.7,313.7l114.5-314.8
				c20.4,12.8,38.5,28.8,53.7,47.6l-122.1,346.4C-569.5,2329.1-584.9,2330.7-600.3,2330.7z"/>
		</g>
	</g>
</g>
<g>
	<rect x="1032.7" y="1746.4" class="st1" width="734.7" height="734.7"/>
	<g>
		<path class="st3" d="M1601.4,1878.8l-189.3-78.4c-8.4-3.5-17.9-3.5-26.4,0l-189.3,78.4c-15.3,6.3-27.2,18.3-33.6,33.6l-74.1,178.8
			c-6.3,15.3-6.3,32.1,0,47.4l78.4,189.3c3.5,8.4,10.2,15.1,18.6,18.6l189.3,78.4c15.3,6.3,32.1,6.3,47.4,0l189.3-78.4
			c8.4-3.5,15.1-10.2,18.6-18.6l82.8-199.9c3.5-8.4,3.5-17.9,0-26.4l-78.4-189.3C1628.6,1897.1,1616.7,1885.1,1601.4,1878.8z"/>
		<polygon class="st4" points="1211.9,1932.8 1400,1848 1586.7,1932.8 1659.9,2109.8 1580.2,2309.1 1398.9,2381.8 1202.6,2293.3 
			1128.9,2113 		"/>
		<path class="st5" d="M1225.2,1946.3c1-2.3,2.8-4.2,5.2-5.2l164.9-68.3c2.3-1,5-1,7.3,0l164.9,68.3c2.3,1,4.2,2.8,5.2,5.2
			l68.3,164.9c1,2.3,1,5,0,7.3l-68.3,164.9c-1,2.3-2.8,4.2-5.2,5.2l-164.9,68.3c-2.3,1-5,1-7.3,0l-164.9-68.3
			c-2.3-1-4.2-2.8-5.2-5.2l-68.3-164.9c-1-2.3-1-5,0-7.3L1225.2,1946.3 M1162.8,1912.4l-74.1,178.8c-6.3,15.3-6.3,32.1,0,47.4
			l74.1,178.8c6.3,15.3,18.3,27.2,33.6,33.6l178.8,74.1c15.3,6.3,32.1,6.3,47.4,0l178.8-74.1c15.3-6.3,27.2-18.3,33.6-33.6
			l74.1-178.8c6.3-15.3,6.3-32.1,0-47.4l-74.1-178.8c-6.3-15.3-18.3-27.2-33.6-33.6l-178.8-74.1c-15.3-6.3-32.1-6.3-47.4,0
			l-178.8,74.1C1181.1,1885.1,1169.2,1897.1,1162.8,1912.4L1162.8,1912.4z"/>
		<path class="st3" d="M1395.3,2352l-161.6-66.9l-101.8-42.2l30.9,74.5c6.3,15.3,18.3,27.2,33.6,33.6l178.8,74.1
			c15.3,6.3,32.1,6.3,47.4,0l74.5-30.9L1395.3,2352z"/>
		<path class="st3" d="M1162.8,1912.4l-74.1,178.8c-6.3,15.3-6.3,32.1,0,47.4l30.9,74.5l42.2-101.8l66.9-161.6l42.2-101.8
			l-74.5,30.9C1181.1,1885.1,1169.2,1897.1,1162.8,1912.4z"/>
		<path class="st3" d="M1300.7,1835.6l101.8,42.2l161.6,66.9l101.8,42.2l-30.9-74.5c-6.3-15.3-18.3-27.2-33.6-33.6l-178.8-74.1
			c-15.3-6.3-32.1-6.3-47.4,0L1300.7,1835.6z"/>
		<path class="st3" d="M1636,2118.4l-66.9,161.6l-42.2,101.8l74.5-30.9c15.3-6.3,27.2-18.3,33.6-33.6l74.1-178.8
			c6.3-15.3,6.3-32.1,0-47.4l-30.9-74.5L1636,2118.4z"/>
		<circle class="st0" cx="1399.3" cy="2113" r="176.2"/>
		<g>
			<defs>
				<circle id="SVGID_25_" cx="1399.3" cy="2113" r="176.2"/>
			</defs>
			<clipPath id="SVGID_26_">
				<use xlink:href="#SVGID_25_"  style="overflow:visible;"/>
			</clipPath>
			<path class="st18" d="M1398.6,2303.3c-13.8,0-27.6-1.5-41.1-4.5l-0.6-0.1l-107.2-299.6l0.4-0.5c13.7-17.5,30.2-32.3,49-44
				l1.2-0.8l98,265.8l97-266.6l1.2,0.7c18.9,11.5,35.5,26.1,49.3,43.5l0.4,0.5l-106.1,301l-0.6,0.1
				C1426.2,2301.8,1412.4,2303.3,1398.6,2303.3z"/>
			<path class="st18" d="M1398.6,2300.4c-13.3,0-26.6-1.4-39.5-4.2L1253,1999.6c12.9-16.3,28.3-30.2,45.9-41.4l99.5,269.8
				l98.5-270.7c17.6,11,33.1,24.7,46.2,40.9l-105,297.9C1425.1,2299,1411.9,2300.4,1398.6,2300.4z"/>
		</g>
	</g>
</g>
<g>
	<rect x="2927.2" y="1797.8" class="st1" width="632" height="632"/>
	<g>
		<path class="st3" d="M3416.5,1911.7l-162.9-67.5c-7.3-3-15.4-3-22.7,0l-162.9,67.5c-13.2,5.5-23.4,15.7-28.9,28.9l-63.7,153.8
			c-5.5,13.2-5.5,27.7,0,40.8L3043,2298c3,7.3,8.8,13,16,16l162.9,67.5c13.2,5.5,27.7,5.5,40.8,0l162.9-67.5c7.3-3,13-8.8,16-16
			l71.2-171.9c3-7.3,3-15.4,0-22.7l-67.5-162.9C3439.9,1927.4,3429.6,1917.1,3416.5,1911.7z"/>
		<polygon class="st4" points="3081.5,1958.1 3243.2,1885.1 3403.8,1958.1 3466.8,2110.3 3398.3,2281.8 3242.3,2344.3 
			3073.4,2268.2 3010.1,2113.1 		"/>
		<path class="st5" d="M3092.9,1969.7c0.8-2,2.4-3.6,4.4-4.4l141.8-58.7c2-0.8,4.3-0.8,6.3,0l141.8,58.7c2,0.8,3.6,2.4,4.4,4.4
			l58.7,141.8c0.8,2,0.8,4.3,0,6.3l-58.7,141.8c-0.8,2-2.4,3.6-4.4,4.4l-141.8,58.7c-2,0.8-4.3,0.8-6.3,0l-141.8-58.7
			c-2-0.8-3.6-2.4-4.4-4.4l-58.7-141.8c-0.8-2-0.8-4.3,0-6.3L3092.9,1969.7 M3039.2,1940.5l-63.7,153.8c-5.5,13.2-5.5,27.7,0,40.8
			l63.7,153.8c5.5,13.2,15.7,23.4,28.9,28.9l153.8,63.7c13.2,5.5,27.7,5.5,40.8,0l153.8-63.7c13.2-5.5,23.4-15.7,28.9-28.9
			l63.7-153.8c5.5-13.2,5.5-27.7,0-40.8l-63.7-153.8c-5.5-13.2-15.7-23.4-28.9-28.9l-153.8-63.7c-13.2-5.5-27.7-5.5-40.8,0
			l-153.8,63.7C3054.9,1917.1,3044.7,1927.4,3039.2,1940.5L3039.2,1940.5z"/>
		<path class="st3" d="M3239.2,2318.7l-139-57.6l-87.5-36.3l26.5,64.1c5.5,13.2,15.7,23.4,28.9,28.9l153.8,63.7
			c13.2,5.5,27.7,5.5,40.8,0l64.1-26.5L3239.2,2318.7z"/>
		<path class="st3" d="M3039.2,1940.5l-63.7,153.8c-5.5,13.2-5.5,27.7,0,40.8l26.5,64.1l36.3-87.5l57.6-139l36.3-87.5l-64.1,26.5
			C3054.9,1917.1,3044.7,1927.4,3039.2,1940.5z"/>
		<path class="st3" d="M3157.8,1874.5l87.5,36.3l139,57.6l87.5,36.3l-26.5-64.1c-5.5-13.2-15.7-23.4-28.9-28.9l-153.8-63.7
			c-13.2-5.5-27.7-5.5-40.8,0L3157.8,1874.5z"/>
		<path class="st3" d="M3446.2,2117.8l-57.6,139l-36.3,87.5l64.1-26.5c13.2-5.5,23.4-15.7,28.9-28.9l63.7-153.8
			c5.5-13.2,5.5-27.7,0-40.8l-26.5-64.1L3446.2,2117.8z"/>
		<circle class="st0" cx="3242.6" cy="2113.1" r="151.6"/>
		<g>
			<defs>
				<circle id="SVGID_27_" cx="3242.6" cy="2113.1" r="151.6"/>
			</defs>
			<clipPath id="SVGID_28_">
				<use xlink:href="#SVGID_27_"  style="overflow:visible;"/>
			</clipPath>
			<path class="st19" d="M3242,2276.8c-11.9,0-23.8-1.3-35.3-3.9l-0.5-0.1l-92.2-257.7l0.3-0.4c11.8-15,26-27.8,42.2-37.9l1-0.6
				l84.3,228.6l83.4-229.4l1,0.6c16.2,9.9,30.5,22.5,42.4,37.4l0.3,0.4l-91.2,258.9l-0.5,0.1
				C3265.8,2275.5,3253.9,2276.8,3242,2276.8z"/>
			<path class="st19" d="M3242,2274.3c-11.4,0-22.9-1.2-34-3.6l-91.3-255.1c11.1-14,24.4-26,39.5-35.6l85.6,232.1l84.7-232.9
				c15.1,9.5,28.5,21.3,39.7,35.2l-90.3,256.3C3264.8,2273.1,3253.4,2274.3,3242,2274.3z"/>
		</g>
	</g>
</g>
<g>
	<rect x="4623.1" y="2405.1" class="st1" width="457.3" height="457.3"/>
	<g>
		<path class="st3" d="M4977.1,2487.5l-117.8-48.8c-5.3-2.2-11.2-2.2-16.4,0l-117.8,48.8c-9.5,3.9-16.9,11.4-20.9,20.9l-46.1,111.3
			c-3.9,9.5-3.9,20,0,29.5l48.8,117.8c2.2,5.3,6.3,9.4,11.6,11.6l117.8,48.8c9.5,3.9,20,3.9,29.5,0l117.8-48.8
			c5.3-2.2,9.4-6.3,11.6-11.6l51.5-124.4c2.2-5.3,2.2-11.2,0-16.4l-48.8-117.8C4994,2498.9,4986.6,2491.5,4977.1,2487.5z"/>
		<polygon class="st4" points="4734.7,2521.1 4851.7,2468.3 4967.9,2521.1 5013.5,2631.3 4963.9,2755.4 4851,2800.6 4728.9,2745.5 
			4683,2633.3 		"/>
		<path class="st5" d="M4742.9,2529.6c0.6-1.5,1.8-2.6,3.2-3.2l102.6-42.5c1.5-0.6,3.1-0.6,4.5,0l102.6,42.5
			c1.5,0.6,2.6,1.8,3.2,3.2l42.5,102.6c0.6,1.5,0.6,3.1,0,4.5l-42.5,102.6c-0.6,1.5-1.8,2.6-3.2,3.2l-102.6,42.5
			c-1.5,0.6-3.1,0.6-4.5,0l-102.6-42.5c-1.5-0.6-2.6-1.8-3.2-3.2l-42.5-102.6c-0.6-1.5-0.6-3.1,0-4.5L4742.9,2529.6 M4704.1,2508.4
			l-46.1,111.3c-3.9,9.5-3.9,20,0,29.5l46.1,111.3c3.9,9.5,11.4,16.9,20.9,20.9l111.3,46.1c9.5,3.9,20,3.9,29.5,0l111.3-46.1
			c9.5-3.9,16.9-11.4,20.9-20.9l46.1-111.3c3.9-9.5,3.9-20,0-29.5l-46.1-111.3c-3.9-9.5-11.4-16.9-20.9-20.9l-111.3-46.1
			c-9.5-3.9-20-3.9-29.5,0l-111.3,46.1C4715.5,2491.5,4708.1,2498.9,4704.1,2508.4L4704.1,2508.4z"/>
		<path class="st3" d="M4848.8,2782l-100.6-41.6l-63.3-26.2l19.2,46.4c3.9,9.5,11.4,16.9,20.9,20.9l111.3,46.1
			c9.5,3.9,20,3.9,29.5,0l46.4-19.2L4848.8,2782z"/>
		<path class="st3" d="M4704.1,2508.4l-46.1,111.3c-3.9,9.5-3.9,20,0,29.5l19.2,46.4l26.2-63.3l41.6-100.6l26.2-63.3l-46.4,19.2
			C4715.5,2491.5,4708.1,2498.9,4704.1,2508.4z"/>
		<path class="st3" d="M4789.9,2460.6l63.3,26.2l100.6,41.6l63.3,26.2l-19.2-46.4c-3.9-9.5-11.4-16.9-20.9-20.9l-111.3-46.1
			c-9.5-3.9-20-3.9-29.5,0L4789.9,2460.6z"/>
		<path class="st3" d="M4998.6,2636.7l-41.6,100.6l-26.2,63.3l46.4-19.2c9.5-3.9,16.9-11.4,20.9-20.9l46.1-111.3
			c3.9-9.5,3.9-20,0-29.5l-19.2-46.4L4998.6,2636.7z"/>
		<circle class="st0" cx="4851.3" cy="2633.3" r="109.7"/>
		<g>
			<defs>
				<circle id="SVGID_29_" cx="4851.3" cy="2633.3" r="109.7"/>
			</defs>
			<clipPath id="SVGID_30_">
				<use xlink:href="#SVGID_29_"  style="overflow:visible;"/>
			</clipPath>
			<path class="st20" d="M4850.9,2751.7c-8.6,0-17.2-0.9-25.6-2.8l-0.4-0.1l-66.7-186.4l0.2-0.3c8.5-10.9,18.8-20.1,30.5-27.4
				l0.8-0.5l61,165.4l60.4-166l0.8,0.5c11.8,7.2,22.1,16.3,30.7,27.1l0.2,0.3l-66,187.3l-0.4,0.1
				C4868,2750.8,4859.5,2751.7,4850.9,2751.7z"/>
			<path class="st20" d="M4850.9,2749.9c-8.3,0-16.5-0.9-24.6-2.6l-66-184.6c8-10.2,17.6-18.8,28.6-25.8l61.9,168l61.3-168.5
				c10.9,6.8,20.6,15.4,28.7,25.5l-65.3,185.4C4867.4,2749,4859.1,2749.9,4850.9,2749.9z"/>
		</g>
	</g>
</g>
<g>
	<rect x="5750.9" y="2037.3" class="st1" width="323.5" height="323.5"/>
	<g>
		<path class="st3" d="M6001.3,2095.6l-83.4-34.5c-3.7-1.5-7.9-1.5-11.6,0l-83.4,34.5c-6.7,2.8-12,8-14.8,14.8l-32.6,78.7
			c-2.8,6.7-2.8,14.2,0,20.9l34.5,83.4c1.5,3.7,4.5,6.7,8.2,8.2l83.4,34.5c6.7,2.8,14.2,2.8,20.9,0l83.4-34.5
			c3.7-1.5,6.7-4.5,8.2-8.2l36.4-88c1.5-3.7,1.5-7.9,0-11.6l-34.5-83.4C6013.3,2103.7,6008.1,2098.4,6001.3,2095.6z"/>
		<polygon class="st4" points="5829.9,2119.4 5912.7,2082.1 5994.8,2119.4 6027.1,2197.3 5992,2285.1 5912.2,2317.1 5825.8,2278.1 
			5793.3,2198.8 		"/>
		<path class="st5" d="M5835.7,2125.4c0.4-1,1.2-1.8,2.3-2.3l72.6-30.1c1-0.4,2.2-0.4,3.2,0l72.6,30.1c1,0.4,1.8,1.2,2.3,2.3
			l30.1,72.6c0.4,1,0.4,2.2,0,3.2l-30.1,72.6c-0.4,1-1.2,1.8-2.3,2.3l-72.6,30.1c-1,0.4-2.2,0.4-3.2,0L5838,2276
			c-1-0.4-1.8-1.2-2.3-2.3l-30.1-72.6c-0.4-1-0.4-2.2,0-3.2L5835.7,2125.4 M5808.2,2110.4l-32.6,78.7c-2.8,6.7-2.8,14.2,0,20.9
			l32.6,78.7c2.8,6.7,8,12,14.8,14.8l78.7,32.6c6.7,2.8,14.2,2.8,20.9,0l78.7-32.6c6.7-2.8,12-8,14.8-14.8l32.6-78.7
			c2.8-6.7,2.8-14.2,0-20.9l-32.6-78.7c-2.8-6.7-8-12-14.8-14.8l-78.7-32.6c-6.7-2.8-14.2-2.8-20.9,0l-78.7,32.6
			C5816.3,2098.4,5811,2103.7,5808.2,2110.4L5808.2,2110.4z"/>
		<path class="st3" d="M5910.6,2304l-71.1-29.5l-44.8-18.6l13.6,32.8c2.8,6.7,8,12,14.8,14.8l78.7,32.6c6.7,2.8,14.2,2.8,20.9,0
			l32.8-13.6L5910.6,2304z"/>
		<path class="st3" d="M5808.2,2110.4l-32.6,78.7c-2.8,6.7-2.8,14.2,0,20.9l13.6,32.8l18.6-44.8l29.5-71.1l18.6-44.8l-32.8,13.6
			C5816.3,2098.4,5811,2103.7,5808.2,2110.4z"/>
		<path class="st3" d="M5868.9,2076.6l44.8,18.6l71.1,29.5l44.8,18.6l-13.6-32.8c-2.8-6.7-8-12-14.8-14.8l-78.7-32.6
			c-6.7-2.8-14.2-2.8-20.9,0L5868.9,2076.6z"/>
		<path class="st3" d="M6016.6,2201.1l-29.5,71.1l-18.6,44.8l32.8-13.6c6.7-2.8,12-8,14.8-14.8l32.6-78.7c2.8-6.7,2.8-14.2,0-20.9
			l-13.6-32.8L6016.6,2201.1z"/>
		<circle class="st2" cx="5912.4" cy="2198.8" r="77.6"/>
		<g>
			<defs>
				<circle id="SVGID_31_" cx="5912.4" cy="2198.8" r="77.6"/>
			</defs>
			<use xlink:href="#SVGID_31_"  style="overflow:visible;fill:#FAFAFA;"/>
			<clipPath id="SVGID_32_">
				<use xlink:href="#SVGID_31_"  style="overflow:visible;"/>
			</clipPath>
			<path class="st21" d="M5912,2282.5c-6.1,0-12.2-0.7-18.1-2l-0.3-0.1l-47.2-131.9l0.2-0.2c6-7.7,13.3-14.2,21.6-19.4l0.5-0.3
				l43.1,117l42.7-117.4l0.5,0.3c8.3,5.1,15.6,11.5,21.7,19.1l0.2,0.2l-46.7,132.5l-0.3,0.1
				C5924.2,2281.9,5918.1,2282.5,5912,2282.5z"/>
			<path class="st21" d="M5912,2281.2c-5.8,0-11.7-0.6-17.4-1.9l-46.7-130.6c5.7-7.2,12.5-13.3,20.2-18.2l43.8,118.8l43.4-119.2
				c7.7,4.8,14.6,10.9,20.3,18l-46.2,131.2C5923.7,2280.6,5917.9,2281.2,5912,2281.2z"/>
		</g>
	</g>
</g>
<g>
	<rect x="608" y="-209.3" class="st2" width="180" height="180"/>
	<g>
		<path class="st3" d="M747.3-176.9L701-196.1c-2.1-0.9-4.4-0.9-6.5,0l-46.4,19.2c-3.7,1.6-6.7,4.5-8.2,8.2l-18.1,43.8
			c-1.6,3.7-1.6,7.9,0,11.6L641-66.9c0.9,2.1,2.5,3.7,4.6,4.6l46.4,19.2c3.7,1.6,7.9,1.6,11.6,0l46.4-19.2c2.1-0.9,3.7-2.5,4.6-4.6
			l20.3-49c0.9-2.1,0.9-4.4,0-6.5l-19.2-46.4C754-172.4,751.1-175.4,747.3-176.9z"/>
		<polygon class="st4" points="651.9,-163.7 698,-184.5 743.7,-163.7 761.7,-120.3 742.2,-71.5 697.7,-53.7 649.6,-75.3 
			631.6,-119.5 		"/>
		<path class="st5" d="M655.2-160.4c0.2-0.6,0.7-1,1.3-1.3l40.4-16.7c0.6-0.2,1.2-0.2,1.8,0l40.4,16.7c0.6,0.2,1,0.7,1.3,1.3
			L757-120c0.2,0.6,0.2,1.2,0,1.8l-16.7,40.4c-0.2,0.6-0.7,1-1.3,1.3l-40.4,16.7c-0.6,0.2-1.2,0.2-1.8,0l-40.4-16.7
			c-0.6-0.2-1-0.7-1.3-1.3l-16.7-40.4c-0.2-0.6-0.2-1.2,0-1.8L655.2-160.4 M639.9-168.7l-18.1,43.8c-1.6,3.7-1.6,7.9,0,11.6
			l18.1,43.8c1.6,3.7,4.5,6.7,8.2,8.2l43.8,18.1c3.7,1.6,7.9,1.6,11.6,0l43.8-18.1c3.7-1.6,6.7-4.5,8.2-8.2l18.1-43.8
			c1.6-3.7,1.6-7.9,0-11.6l-18.1-43.8c-1.6-3.7-4.5-6.7-8.2-8.2l-43.8-18.1c-3.7-1.6-7.9-1.6-11.6,0l-43.8,18.1
			C644.4-175.4,641.4-172.4,639.9-168.7L639.9-168.7z"/>
		<path class="st3" d="M696.9-61l-39.6-16.4l-24.9-10.3l7.6,18.2c1.6,3.7,4.5,6.7,8.2,8.2l43.8,18.1c3.7,1.6,7.9,1.6,11.6,0
			l18.2-7.6L696.9-61z"/>
		<path class="st3" d="M639.9-168.7l-18.1,43.8c-1.6,3.7-1.6,7.9,0,11.6l7.6,18.2l10.3-24.9l16.4-39.6l10.3-24.9l-18.2,7.6
			C644.4-175.4,641.4-172.4,639.9-168.7z"/>
		<path class="st3" d="M673.7-187.5l24.9,10.3l39.6,16.4l24.9,10.3l-7.6-18.2c-1.6-3.7-4.5-6.7-8.2-8.2l-43.8-18.1
			c-3.7-1.6-7.9-1.6-11.6,0L673.7-187.5z"/>
		<path class="st3" d="M755.8-118.2l-16.4,39.6l-10.3,24.9l18.2-7.6c3.7-1.6,6.7-4.5,8.2-8.2l18.1-43.8c1.6-3.7,1.6-7.9,0-11.6
			l-7.6-18.2L755.8-118.2z"/>
		<circle class="st2" cx="697.8" cy="-119.5" r="43.2"/>
		<g>
			<defs>
				<circle id="SVGID_33_" cx="697.8" cy="-119.5" r="43.2"/>
			</defs>
			<clipPath id="SVGID_34_">
				<use xlink:href="#SVGID_33_"  style="overflow:visible;"/>
			</clipPath>
			<path class="st22" d="M697.7-72.9c-3.4,0-6.8-0.4-10.1-1.1l-0.2,0l-26.3-73.4l0.1-0.1c3.4-4.3,7.4-7.9,12-10.8l0.3-0.2l24,65.1
				l23.8-65.3l0.3,0.2c4.6,2.8,8.7,6.4,12.1,10.7l0.1,0.1l-26,73.7l-0.2,0C704.4-73.3,701-72.9,697.7-72.9z"/>
			<path class="st22" d="M697.7-73.6c-3.3,0-6.5-0.3-9.7-1l-26-72.7c3.2-4,6.9-7.4,11.2-10.2l24.4,66.1l24.1-66.3
				c4.3,2.7,8.1,6.1,11.3,10l-25.7,73C704.2-74,700.9-73.6,697.7-73.6z"/>
		</g>
	</g>
</g>
<g>
	<rect x="6821.2" y="2377.1" class="st1" width="218.9" height="218.9"/>
	<g>
		<path class="st3" d="M6990.7,2416.5l-56.4-23.4c-2.5-1-5.3-1-7.9,0l-56.4,23.4c-4.6,1.9-8.1,5.4-10,10l-22.1,53.3
			c-1.9,4.6-1.9,9.6,0,14.1l23.4,56.4c1,2.5,3,4.5,5.6,5.6l56.4,23.4c4.6,1.9,9.6,1.9,14.1,0l56.4-23.4c2.5-1,4.5-3,5.6-5.6
			l24.7-59.6c1-2.5,1-5.3,0-7.9l-23.4-56.4C6998.8,2422,6995.2,2418.4,6990.7,2416.5z"/>
		<polygon class="st4" points="6874.6,2432.6 6930.7,2407.3 6986.3,2432.6 7008.1,2485.4 6984.4,2544.8 6930.3,2566.4 
			6871.9,2540.1 6849.9,2486.3 		"/>
		<path class="st5" d="M6878.6,2436.6c0.3-0.7,0.8-1.2,1.5-1.5l49.1-20.4c0.7-0.3,1.5-0.3,2.2,0l49.1,20.4c0.7,0.3,1.2,0.8,1.5,1.5
			l20.4,49.1c0.3,0.7,0.3,1.5,0,2.2l-20.4,49.1c-0.3,0.7-0.8,1.2-1.5,1.5l-49.1,20.4c-0.7,0.3-1.5,0.3-2.2,0l-49.1-20.4
			c-0.7-0.3-1.2-0.8-1.5-1.5l-20.4-49.1c-0.3-0.7-0.3-1.5,0-2.2L6878.6,2436.6 M6860,2426.5l-22.1,53.3c-1.9,4.6-1.9,9.6,0,14.1
			l22.1,53.3c1.9,4.6,5.4,8.1,10,10l53.3,22.1c4.6,1.9,9.6,1.9,14.1,0l53.3-22.1c4.6-1.9,8.1-5.4,10-10l22.1-53.3
			c1.9-4.6,1.9-9.6,0-14.1l-22.1-53.3c-1.9-4.6-5.4-8.1-10-10l-53.3-22.1c-4.6-1.9-9.6-1.9-14.1,0l-53.3,22.1
			C6865.4,2418.4,6861.9,2422,6860,2426.5L6860,2426.5z"/>
		<path class="st3" d="M6929.3,2557.5l-48.1-19.9l-30.3-12.6l9.2,22.2c1.9,4.6,5.4,8.1,10,10l53.3,22.1c4.6,1.9,9.6,1.9,14.1,0
			l22.2-9.2L6929.3,2557.5z"/>
		<path class="st3" d="M6860,2426.5l-22.1,53.3c-1.9,4.6-1.9,9.6,0,14.1l9.2,22.2l12.6-30.3l19.9-48.1l12.6-30.3l-22.2,9.2
			C6865.4,2418.4,6861.9,2422,6860,2426.5z"/>
		<path class="st3" d="M6901.1,2403.6l30.3,12.6l48.1,19.9l30.3,12.6l-9.2-22.2c-1.9-4.6-5.4-8.1-10-10l-53.3-22.1
			c-4.6-1.9-9.6-1.9-14.1,0L6901.1,2403.6z"/>
		<path class="st3" d="M7001,2487.9l-19.9,48.1l-12.6,30.3l22.2-9.2c4.6-1.9,8.1-5.4,10-10l22.1-53.3c1.9-4.6,1.9-9.6,0-14.1
			l-9.2-22.2L7001,2487.9z"/>
		<circle class="st2" cx="6930.5" cy="2486.3" r="52.5"/>
		<g>
			<defs>
				<circle id="SVGID_35_" cx="6930.5" cy="2486.3" r="52.5"/>
			</defs>
			<use xlink:href="#SVGID_35_"  style="overflow:visible;fill:#FAFAFA;"/>
			<clipPath id="SVGID_36_">
				<use xlink:href="#SVGID_35_"  style="overflow:visible;"/>
			</clipPath>
			<path class="st23" d="M6930.3,2543c-4.1,0-8.2-0.5-12.2-1.3l-0.2,0l-31.9-89.3l0.1-0.2c4.1-5.2,9-9.6,14.6-13.1l0.4-0.2
				l29.2,79.2l28.9-79.5l0.4,0.2c5.6,3.4,10.6,7.8,14.7,13l0.1,0.1l-31.6,89.7l-0.2,0C6938.5,2542.6,6934.4,2543,6930.3,2543z"/>
			<path class="st23" d="M6930.3,2542.2c-4,0-7.9-0.4-11.8-1.3l-31.6-88.4c3.8-4.9,8.4-9,13.7-12.3l29.7,80.4l29.4-80.7
				c5.2,3.3,9.9,7.4,13.8,12.2l-31.3,88.8C6938.2,2541.7,6934.2,2542.2,6930.3,2542.2z"/>
		</g>
	</g>
</g>
<g>
	<rect x="1400" y="0" class="st1" width="192" height="192"/>
	<g>
		<path class="st3" d="M1548.6,34.6l-49.5-20.5c-2.2-0.9-4.7-0.9-6.9,0l-49.5,20.5c-4,1.7-7.1,4.8-8.8,8.8l-19.4,46.7
			c-1.7,4-1.7,8.4,0,12.4l20.5,49.5c0.9,2.2,2.7,4,4.9,4.9l49.5,20.5c4,1.7,8.4,1.7,12.4,0l49.5-20.5c2.2-0.9,4-2.7,4.9-4.9
			l21.6-52.2c0.9-2.2,0.9-4.7,0-6.9l-20.5-49.5C1555.7,39.4,1552.6,36.3,1548.6,34.6z"/>
		<polygon class="st4" points="1446.9,48.7 1496,26.5 1544.8,48.7 1563.9,95 1543.1,147.1 1495.7,166 1444.4,142.9 1425.2,95.8 		
			"/>
		<path class="st5" d="M1450.3,52.3c0.3-0.6,0.7-1.1,1.3-1.3l43.1-17.8c0.6-0.3,1.3-0.3,1.9,0l43.1,17.8c0.6,0.3,1.1,0.7,1.3,1.3
			l17.8,43.1c0.3,0.6,0.3,1.3,0,1.9l-17.8,43.1c-0.3,0.6-0.7,1.1-1.3,1.3l-43.1,17.8c-0.6,0.3-1.3,0.3-1.9,0l-43.1-17.8
			c-0.6-0.3-1.1-0.7-1.3-1.3l-17.8-43.1c-0.3-0.6-0.3-1.3,0-1.9L1450.3,52.3 M1434,43.4l-19.4,46.7c-1.7,4-1.7,8.4,0,12.4l19.4,46.7
			c1.7,4,4.8,7.1,8.8,8.8l46.7,19.4c4,1.7,8.4,1.7,12.4,0l46.7-19.4c4-1.7,7.1-4.8,8.8-8.8l19.4-46.7c1.7-4,1.7-8.4,0-12.4
			l-19.4-46.7c-1.7-4-4.8-7.1-8.8-8.8l-46.7-19.4c-4-1.7-8.4-1.7-12.4,0l-46.7,19.4C1438.8,36.3,1435.7,39.4,1434,43.4L1434,43.4z"
			/>
		<path class="st3" d="M1494.8,158.3l-42.2-17.5l-26.6-11l8.1,19.5c1.7,4,4.8,7.1,8.8,8.8l46.7,19.4c4,1.7,8.4,1.7,12.4,0l19.5-8.1
			L1494.8,158.3z"/>
		<path class="st3" d="M1434,43.4l-19.4,46.7c-1.7,4-1.7,8.4,0,12.4l8.1,19.5l11-26.6l17.5-42.2l11-26.6l-19.5,8.1
			C1438.8,36.3,1435.7,39.4,1434,43.4z"/>
		<path class="st3" d="M1470,23.3l26.6,11l42.2,17.5l26.6,11l-8.1-19.5c-1.7-4-4.8-7.1-8.8-8.8l-46.7-19.4c-4-1.7-8.4-1.7-12.4,0
			L1470,23.3z"/>
		<path class="st3" d="M1557.7,97.2l-17.5,42.2l-11,26.6l19.5-8.1c4-1.7,7.1-4.8,8.8-8.8l19.4-46.7c1.7-4,1.7-8.4,0-12.4l-8.1-19.5
			L1557.7,97.2z"/>
		<circle class="st2" cx="1495.8" cy="95.8" r="46"/>
		<g>
			<defs>
				<circle id="SVGID_37_" cx="1495.8" cy="95.8" r="46"/>
			</defs>
			<clipPath id="SVGID_38_">
				<use xlink:href="#SVGID_37_"  style="overflow:visible;"/>
			</clipPath>
			<path class="st24" d="M1495.6,145.5c-3.6,0-7.2-0.4-10.7-1.2l-0.2,0l-28-78.3l0.1-0.1c3.6-4.6,7.9-8.4,12.8-11.5l0.3-0.2
				l25.6,69.5l25.4-69.7l0.3,0.2c4.9,3,9.3,6.8,12.9,11.4l0.1,0.1l-27.7,78.7l-0.2,0C1502.8,145.1,1499.2,145.5,1495.6,145.5z"/>
			<path class="st24" d="M1495.6,144.8c-3.5,0-6.9-0.4-10.3-1.1l-27.7-77.5c3.4-4.3,7.4-7.9,12-10.8l26,70.5l25.7-70.8
				c4.6,2.9,8.6,6.5,12.1,10.7l-27.4,77.9C1502.6,144.4,1499.1,144.8,1495.6,144.8z"/>
		</g>
	</g>
</g>
<g>
	<rect x="1790" y="0" class="st1" width="144" height="144"/>
	<g>
		<path class="st3" d="M1901.5,26l-37.1-15.4c-1.7-0.7-3.5-0.7-5.2,0L1822.1,26c-3,1.2-5.3,3.6-6.6,6.6l-14.5,35
			c-1.2,3-1.2,6.3,0,9.3l15.4,37.1c0.7,1.7,2,3,3.7,3.7l37.1,15.4c3,1.2,6.3,1.2,9.3,0l37.1-15.4c1.7-0.7,3-2,3.7-3.7l16.2-39.2
			c0.7-1.7,0.7-3.5,0-5.2L1908,32.5C1906.8,29.5,1904.5,27.2,1901.5,26z"/>
		<polygon class="st4" points="1825.1,36.5 1862,19.9 1898.6,36.5 1912.9,71.2 1897.3,110.3 1861.8,124.5 1823.3,107.2 1808.9,71.9 
					"/>
		<path class="st5" d="M1827.7,39.2c0.2-0.5,0.6-0.8,1-1l32.3-13.4c0.5-0.2,1-0.2,1.4,0l32.3,13.4c0.5,0.2,0.8,0.6,1,1l13.4,32.3
			c0.2,0.5,0.2,1,0,1.4l-13.4,32.3c-0.2,0.5-0.6,0.8-1,1l-32.3,13.4c-0.5,0.2-1,0.2-1.4,0l-32.3-13.4c-0.5-0.2-0.8-0.6-1-1
			l-13.4-32.3c-0.2-0.5-0.2-1,0-1.4L1827.7,39.2 M1815.5,32.5l-14.5,35c-1.2,3-1.2,6.3,0,9.3l14.5,35c1.2,3,3.6,5.3,6.6,6.6l35,14.5
			c3,1.2,6.3,1.2,9.3,0l35-14.5c3-1.2,5.3-3.6,6.6-6.6l14.5-35c1.2-3,1.2-6.3,0-9.3l-14.5-35c-1.2-3-3.6-5.3-6.6-6.6l-35-14.5
			c-3-1.2-6.3-1.2-9.3,0l-35,14.5C1819.1,27.2,1816.8,29.5,1815.5,32.5L1815.5,32.5z"/>
		<path class="st3" d="M1861.1,118.7l-31.7-13.1l-19.9-8.3l6,14.6c1.2,3,3.6,5.3,6.6,6.6l35,14.5c3,1.2,6.3,1.2,9.3,0l14.6-6
			L1861.1,118.7z"/>
		<path class="st3" d="M1815.5,32.5l-14.5,35c-1.2,3-1.2,6.3,0,9.3l6,14.6l8.3-19.9l13.1-31.7l8.3-19.9l-14.6,6
			C1819.1,27.2,1816.8,29.5,1815.5,32.5z"/>
		<path class="st3" d="M1842.5,17.5l19.9,8.3l31.7,13.1l19.9,8.3l-6-14.6c-1.2-3-3.6-5.3-6.6-6.6l-35-14.5c-3-1.2-6.3-1.2-9.3,0
			L1842.5,17.5z"/>
		<path class="st3" d="M1908.3,72.9l-13.1,31.7l-8.3,19.9l14.6-6c3-1.2,5.3-3.6,6.6-6.6l14.5-35c1.2-3,1.2-6.3,0-9.3l-6-14.6
			L1908.3,72.9z"/>
		<circle class="st2" cx="1861.9" cy="71.9" r="34.5"/>
		<g>
			<defs>
				<circle id="SVGID_39_" cx="1861.9" cy="71.9" r="34.5"/>
			</defs>
			<clipPath id="SVGID_40_">
				<use xlink:href="#SVGID_39_"  style="overflow:visible;"/>
			</clipPath>
			<path class="st25" d="M1861.7,109.2c-2.7,0-5.4-0.3-8.1-0.9l-0.1,0l-21-58.7l0.1-0.1c2.7-3.4,5.9-6.3,9.6-8.6l0.2-0.1l19.2,52.1
				l19-52.3l0.2,0.1c3.7,2.3,7,5.1,9.7,8.5l0.1,0.1l-20.8,59l-0.1,0C1867.1,108.9,1864.4,109.2,1861.7,109.2z"/>
			<path class="st25" d="M1861.7,108.6c-2.6,0-5.2-0.3-7.7-0.8l-20.8-58.1c2.5-3.2,5.6-5.9,9-8.1l19.5,52.9l19.3-53.1
				c3.4,2.2,6.5,4.9,9,8l-20.6,58.4C1866.9,108.3,1864.3,108.6,1861.7,108.6z"/>
		</g>
	</g>
</g>
<g>
	<rect x="1984" y="0" class="st1" width="270" height="270"/>
	<g>
		<path class="st3" d="M2153.7,72l-32.6-13.5c-1.5-0.6-3.1-0.6-4.5,0L2084,72c-2.6,1.1-4.7,3.1-5.8,5.8l-12.7,30.8
			c-1.1,2.6-1.1,5.5,0,8.2l13.5,32.6c0.6,1.5,1.8,2.6,3.2,3.2l32.6,13.5c2.6,1.1,5.5,1.1,8.2,0l32.6-13.5c1.5-0.6,2.6-1.8,3.2-3.2
			l14.2-34.4c0.6-1.5,0.6-3.1,0-4.5l-13.5-32.6C2158.3,75.2,2156.3,73.1,2153.7,72z"/>
		<polygon class="st4" points="2086.6,81.3 2119,66.7 2151.1,81.3 2163.7,111.8 2150,146.1 2118.8,158.6 2085,143.4 2072.3,112.3 		
			"/>
		<path class="st5" d="M2088.9,83.7c0.2-0.4,0.5-0.7,0.9-0.9l28.4-11.8c0.4-0.2,0.9-0.2,1.3,0l28.4,11.8c0.4,0.2,0.7,0.5,0.9,0.9
			l11.8,28.4c0.2,0.4,0.2,0.9,0,1.3l-11.8,28.4c-0.2,0.4-0.5,0.7-0.9,0.9l-28.4,11.8c-0.4,0.2-0.9,0.2-1.3,0l-28.4-11.8
			c-0.4-0.2-0.7-0.5-0.9-0.9l-11.8-28.4c-0.2-0.4-0.2-0.9,0-1.3L2088.9,83.7 M2078.2,77.8l-12.7,30.8c-1.1,2.6-1.1,5.5,0,8.2
			l12.7,30.8c1.1,2.6,3.1,4.7,5.8,5.8l30.8,12.7c2.6,1.1,5.5,1.1,8.2,0l30.8-12.7c2.6-1.1,4.7-3.1,5.8-5.8l12.7-30.8
			c1.1-2.6,1.1-5.5,0-8.2l-12.7-30.8c-1.1-2.6-3.1-4.7-5.8-5.8l-30.8-12.7c-2.6-1.1-5.5-1.1-8.2,0L2084,72
			C2081.3,73.1,2079.3,75.2,2078.2,77.8L2078.2,77.8z"/>
		<path class="st3" d="M2118.2,153.5l-27.8-11.5l-17.5-7.3l5.3,12.8c1.1,2.6,3.1,4.7,5.8,5.8l30.8,12.7c2.6,1.1,5.5,1.1,8.2,0
			l12.8-5.3L2118.2,153.5z"/>
		<path class="st3" d="M2078.2,77.8l-12.7,30.8c-1.1,2.6-1.1,5.5,0,8.2l5.3,12.8l7.3-17.5l11.5-27.8l7.3-17.5L2084,72
			C2081.3,73.1,2079.3,75.2,2078.2,77.8z"/>
		<path class="st3" d="M2101.9,64.6l17.5,7.3l27.8,11.5l17.5,7.3l-5.3-12.8c-1.1-2.6-3.1-4.7-5.8-5.8l-30.8-12.7
			c-2.6-1.1-5.5-1.1-8.2,0L2101.9,64.6z"/>
		<path class="st3" d="M2159.6,113.3l-11.5,27.8l-7.3,17.5l12.8-5.3c2.6-1.1,4.7-3.1,5.8-5.8l12.7-30.8c1.1-2.6,1.1-5.5,0-8.2
			l-5.3-12.8L2159.6,113.3z"/>
		<circle class="st2" cx="2118.9" cy="112.3" r="30.3"/>
		<g>
			<defs>
				<circle id="SVGID_41_" cx="2118.9" cy="112.3" r="30.3"/>
			</defs>
			<clipPath id="SVGID_42_">
				<use xlink:href="#SVGID_41_"  style="overflow:visible;"/>
			</clipPath>
			<path class="st26" d="M2118.8,145.1c-2.4,0-4.8-0.3-7.1-0.8l-0.1,0l-18.4-51.6l0.1-0.1c2.4-3,5.2-5.6,8.4-7.6l0.2-0.1l16.9,45.7
				l16.7-45.9l0.2,0.1c3.2,2,6.1,4.5,8.5,7.5l0.1,0.1l-18.3,51.8l-0.1,0C2123.5,144.8,2121.1,145.1,2118.8,145.1z"/>
			<path class="st26" d="M2118.8,144.6c-2.3,0-4.6-0.2-6.8-0.7l-18.3-51c2.2-2.8,4.9-5.2,7.9-7.1l17.1,46.4l17-46.6
				c3,1.9,5.7,4.3,7.9,7l-18.1,51.3C2123.3,144.4,2121,144.6,2118.8,144.6z"/>
		</g>
	</g>
</g>
<g>
	<rect x="1642" y="0" class="st1" width="16" height="16"/>
	<g>
		<path class="st3" d="M1654.4,2.9l-4.1-1.7c-0.2-0.1-0.4-0.1-0.6,0l-4.1,1.7c-0.3,0.1-0.6,0.4-0.7,0.7l-1.6,3.9
			c-0.1,0.3-0.1,0.7,0,1l1.7,4.1c0.1,0.2,0.2,0.3,0.4,0.4l4.1,1.7c0.3,0.1,0.7,0.1,1,0l4.1-1.7c0.2-0.1,0.3-0.2,0.4-0.4l1.8-4.4
			c0.1-0.2,0.1-0.4,0-0.6l-1.7-4.1C1655,3.3,1654.7,3,1654.4,2.9z"/>
		<polygon class="st4" points="1645.9,4.1 1650,2.2 1654.1,4.1 1655.7,7.9 1653.9,12.3 1650,13.8 1645.7,11.9 1644.1,8 		"/>
		<path class="st5" d="M1646.2,4.4c0-0.1,0.1-0.1,0.1-0.1l3.6-1.5c0.1,0,0.1,0,0.2,0l3.6,1.5c0.1,0,0.1,0.1,0.1,0.1l1.5,3.6
			c0,0.1,0,0.1,0,0.2l-1.5,3.6c0,0.1-0.1,0.1-0.1,0.1l-3.6,1.5c-0.1,0-0.1,0-0.2,0l-3.6-1.5c-0.1,0-0.1-0.1-0.1-0.1l-1.5-3.6
			c0-0.1,0-0.1,0-0.2L1646.2,4.4 M1644.8,3.6l-1.6,3.9c-0.1,0.3-0.1,0.7,0,1l1.6,3.9c0.1,0.3,0.4,0.6,0.7,0.7l3.9,1.6
			c0.3,0.1,0.7,0.1,1,0l3.9-1.6c0.3-0.1,0.6-0.4,0.7-0.7l1.6-3.9c0.1-0.3,0.1-0.7,0-1l-1.6-3.9c-0.1-0.3-0.4-0.6-0.7-0.7l-3.9-1.6
			c-0.3-0.1-0.7-0.1-1,0l-3.9,1.6C1645.2,3,1645,3.3,1644.8,3.6L1644.8,3.6z"/>
		<path class="st3" d="M1649.9,13.2l-3.5-1.5l-2.2-0.9l0.7,1.6c0.1,0.3,0.4,0.6,0.7,0.7l3.9,1.6c0.3,0.1,0.7,0.1,1,0l1.6-0.7
			L1649.9,13.2z"/>
		<path class="st3" d="M1644.8,3.6l-1.6,3.9c-0.1,0.3-0.1,0.7,0,1l0.7,1.6l0.9-2.2l1.5-3.5l0.9-2.2l-1.6,0.7
			C1645.2,3,1645,3.3,1644.8,3.6z"/>
		<path class="st3" d="M1647.8,1.9l2.2,0.9l3.5,1.5l2.2,0.9l-0.7-1.6c-0.1-0.3-0.4-0.6-0.7-0.7l-3.9-1.6c-0.3-0.1-0.7-0.1-1,0
			L1647.8,1.9z"/>
		<path class="st3" d="M1655.1,8.1l-1.5,3.5l-0.9,2.2l1.6-0.7c0.3-0.1,0.6-0.4,0.7-0.7l1.6-3.9c0.1-0.3,0.1-0.7,0-1l-0.7-1.6
			L1655.1,8.1z"/>
		<circle class="st2" cx="1650" cy="8" r="3.8"/>
		<g>
			<defs>
				<circle id="SVGID_43_" cx="1650" cy="8" r="3.8"/>
			</defs>
			<clipPath id="SVGID_44_">
				<use xlink:href="#SVGID_43_"  style="overflow:visible;"/>
			</clipPath>
			<path class="st27" d="M1650,12.1c-0.3,0-0.6,0-0.9-0.1l0,0l-2.3-6.5l0,0c0.3-0.4,0.7-0.7,1.1-1l0,0l2.1,5.8l2.1-5.8l0,0
				c0.4,0.3,0.8,0.6,1.1,0.9l0,0l-2.3,6.6l0,0C1650.6,12.1,1650.3,12.1,1650,12.1z"/>
			<path class="st27" d="M1650,12.1c-0.3,0-0.6,0-0.9-0.1l-2.3-6.5c0.3-0.4,0.6-0.7,1-0.9l2.2,5.9l2.1-5.9c0.4,0.2,0.7,0.5,1,0.9
				l-2.3,6.5C1650.5,12,1650.3,12.1,1650,12.1z"/>
		</g>
	</g>
</g>
<g>
	<rect x="1708" y="0" class="st1" width="32" height="32"/>
	<g>
		<path class="st3" d="M1732.8,5.8l-8.2-3.4c-0.4-0.2-0.8-0.2-1.1,0l-8.2,3.4c-0.7,0.3-1.2,0.8-1.5,1.5l-3.2,7.8
			c-0.3,0.7-0.3,1.4,0,2.1l3.4,8.2c0.2,0.4,0.4,0.7,0.8,0.8l8.2,3.4c0.7,0.3,1.4,0.3,2.1,0l8.2-3.4c0.4-0.2,0.7-0.4,0.8-0.8l3.6-8.7
			c0.2-0.4,0.2-0.8,0-1.1l-3.4-8.2C1734,6.6,1733.4,6,1732.8,5.8z"/>
		<polygon class="st4" points="1715.8,8.1 1724,4.4 1732.1,8.1 1735.3,15.8 1731.9,24.5 1724,27.7 1715.4,23.8 1712.2,16 		"/>
		<path class="st5" d="M1716.4,8.7c0-0.1,0.1-0.2,0.2-0.2l7.2-3c0.1,0,0.2,0,0.3,0l7.2,3c0.1,0,0.2,0.1,0.2,0.2l3,7.2
			c0,0.1,0,0.2,0,0.3l-3,7.2c0,0.1-0.1,0.2-0.2,0.2l-7.2,3c-0.1,0-0.2,0-0.3,0l-7.2-3c-0.1,0-0.2-0.1-0.2-0.2l-3-7.2
			c0-0.1,0-0.2,0-0.3L1716.4,8.7 M1713.7,7.2l-3.2,7.8c-0.3,0.7-0.3,1.4,0,2.1l3.2,7.8c0.3,0.7,0.8,1.2,1.5,1.5l7.8,3.2
			c0.7,0.3,1.4,0.3,2.1,0l7.8-3.2c0.7-0.3,1.2-0.8,1.5-1.5l3.2-7.8c0.3-0.7,0.3-1.4,0-2.1l-3.2-7.8c-0.3-0.7-0.8-1.2-1.5-1.5
			l-7.8-3.2c-0.7-0.3-1.4-0.3-2.1,0l-7.8,3.2C1714.5,6,1713.9,6.6,1713.7,7.2L1713.7,7.2z"/>
		<path class="st3" d="M1723.8,26.4l-7-2.9l-4.4-1.8l1.3,3.2c0.3,0.7,0.8,1.2,1.5,1.5l7.8,3.2c0.7,0.3,1.4,0.3,2.1,0l3.2-1.3
			L1723.8,26.4z"/>
		<path class="st3" d="M1713.7,7.2l-3.2,7.8c-0.3,0.7-0.3,1.4,0,2.1l1.3,3.2l1.8-4.4l2.9-7l1.8-4.4l-3.2,1.3
			C1714.5,6,1713.9,6.6,1713.7,7.2z"/>
		<path class="st3" d="M1719.7,3.9l4.4,1.8l7,2.9l4.4,1.8l-1.3-3.2c-0.3-0.7-0.8-1.2-1.5-1.5l-7.8-3.2c-0.7-0.3-1.4-0.3-2.1,0
			L1719.7,3.9z"/>
		<path class="st3" d="M1734.3,16.2l-2.9,7l-1.8,4.4l3.2-1.3c0.7-0.3,1.2-0.8,1.5-1.5l3.2-7.8c0.3-0.7,0.3-1.4,0-2.1l-1.3-3.2
			L1734.3,16.2z"/>
		<circle class="st2" cx="1724" cy="16" r="7.7"/>
		<g>
			<defs>
				<circle id="SVGID_45_" cx="1724" cy="16" r="7.7"/>
			</defs>
			<clipPath id="SVGID_46_">
				<use xlink:href="#SVGID_45_"  style="overflow:visible;"/>
			</clipPath>
			<path class="st28" d="M1723.9,24.3c-0.6,0-1.2-0.1-1.8-0.2l0,0l-4.7-13l0,0c0.6-0.8,1.3-1.4,2.1-1.9l0.1,0l4.3,11.6l4.2-11.6
				l0.1,0c0.8,0.5,1.5,1.1,2.1,1.9l0,0l-4.6,13.1l0,0C1725.1,24.2,1724.5,24.3,1723.9,24.3z"/>
			<path class="st28" d="M1723.9,24.1c-0.6,0-1.2-0.1-1.7-0.2l-4.6-12.9c0.6-0.7,1.2-1.3,2-1.8l4.3,11.8l4.3-11.8
				c0.8,0.5,1.4,1.1,2,1.8l-4.6,13C1725.1,24.1,1724.5,24.1,1723.9,24.1z"/>
		</g>
	</g>
</g>
</svg>
